<?xml version="1.0" encoding="UTF-8"?>
<svg version="1.1" xmlns="http://www.w3.org/2000/svg" width="676" height="622">
<path d="M0 0 C223.08 0 446.16 0 676 0 C676 205.26 676 410.52 676 622 C452.92 622 229.84 622 0 622 C0 416.74 0 211.48 0 0 Z " fill="#FDD458" transform="translate(0,0)"/>
<path d="M0 0 C4.95 0.99 4.95 0.99 10 2 C10 1.34 10 0.68 10 0 C13.68743234 -0.05850924 17.3747437 -0.09376673 21.0625 -0.125 C22.10083984 -0.14175781 23.13917969 -0.15851563 24.20898438 -0.17578125 C29.90568551 -0.21195078 34.53323036 0.24089096 40 2 C42.14188539 2.18042356 44.28911659 2.30663039 46.4375 2.375 C54.56769686 2.95174165 59.29937955 4.98687955 65.0625 10.75 C74.55727207 22.12880346 80.94139582 40.73178863 80.25 55.40234375 C80.1675 56.25957031 80.085 57.11679687 80 58 C79.9175 58.86753906 79.835 59.73507812 79.75 60.62890625 C77.98929999 73.22891569 72.60005839 84.55194861 63 93 C61.675714 93.68446243 60.34305462 94.35314104 59 95 C58.505 95.50660156 58.01 96.01320313 57.5 96.53515625 C55.72257883 98.27091911 54.37056251 98.73591808 52 99.4375 C49.42564661 100.21560038 46.96480521 101.01513047 44.4921875 102.078125 C37.59970576 104.99971427 31.56032443 105.32247132 24.1875 105.04296875 C20.9770354 104.82488459 20.9770354 104.82488459 18 106 C15.64738643 106.09511161 13.29203033 106.12986976 10.9375 106.125 C9.68839844 106.12757813 8.43929687 106.13015625 7.15234375 106.1328125 C4 106 4 106 2 105 C0.6832769 101.04983071 0.76344561 97.22820586 0.68359375 93.10546875 C0.66276733 92.18977615 0.64194092 91.27408356 0.6204834 90.3306427 C0.5537405 87.2830191 0.49510555 84.23530921 0.4375 81.1875 C0.41632111 80.14553467 0.39514221 79.10356934 0.37332153 78.0300293 C-0.14887358 52.02159872 -0.09839382 26.01229757 0 0 Z " fill="#FBD358" transform="translate(158,370)"/>
<path d="M0 0 C0.92425781 0.08765625 1.84851563 0.1753125 2.80078125 0.265625 C4.24517578 0.4203125 4.24517578 0.4203125 5.71875 0.578125 C6.68167969 0.66578125 7.64460938 0.7534375 8.63671875 0.84375 C15.82493073 1.56557882 15.82493073 1.56557882 19.21875 3.828125 C19.90625 6.453125 19.90625 6.453125 20.21875 8.828125 C20.87875 8.23 21.53875 7.631875 22.21875 7.015625 C30.46473786 1.00292552 39.38376521 0.75975609 49.21875 1.828125 C52.66131085 3.0147098 55.2877854 4.70185409 58.21875 6.828125 C59.61420706 7.59963929 61.01003629 8.37048085 62.40625 9.140625 C70.76514143 14.45840881 75.56711603 24.23570573 77.80419922 33.62451172 C80.61415439 48.56129345 77.60429698 62.8332567 69.90625 75.828125 C65.15214435 82.75818789 59.46683818 88.42067278 51.21875 90.828125 C48.10068614 91.20509418 45.04303808 91.20453674 41.90625 91.140625 C41.09607422 91.14384766 40.28589844 91.14707031 39.45117188 91.15039062 C33.48638393 91.09575893 33.48638393 91.09575893 31.21875 88.828125 C29.23281513 88.06073615 27.22447438 87.43550864 25.19140625 86.8046875 C23.21875 85.828125 23.21875 85.828125 20.21875 81.828125 C19.55875 92.718125 18.89875 103.608125 18.21875 114.828125 C22.50875 114.828125 26.79875 114.828125 31.21875 114.828125 C32.20875 115.158125 33.19875 115.488125 34.21875 115.828125 C33.91105293 117.64144654 33.59745936 119.45376845 33.28125 121.265625 C33.10722656 122.27496094 32.93320312 123.28429687 32.75390625 124.32421875 C32.21875 126.828125 32.21875 126.828125 31.21875 127.828125 C29.40372299 127.78708961 27.59066667 127.66401046 25.78125 127.515625 C24.54246094 127.41765625 23.30367188 127.3196875 22.02734375 127.21875 C21.29499512 127.15880859 20.56264648 127.09886719 19.80810547 127.03710938 C15.51889546 126.69093138 11.2279275 126.36775934 6.93725586 126.0402832 C1.69747771 125.63979741 -3.54189527 125.23410703 -8.78125 124.828125 C-8.96875 121.453125 -8.96875 121.453125 -8.78125 117.828125 C-5.10037647 115.37420931 -2.33769412 115.60009741 1.90625 115.703125 C2.60814453 115.71214844 3.31003906 115.72117187 4.03320312 115.73046875 C5.76186525 115.75398796 7.49035145 115.78985787 9.21875 115.828125 C9.11098702 105.53552311 8.99830184 95.24298783 8.87941074 84.95050812 C8.82435215 80.17080381 8.77096043 75.39109323 8.72143555 70.61132812 C8.67353906 65.9947354 8.62118898 61.3782123 8.56580925 56.76170349 C8.54549968 55.0043665 8.52676866 53.2470105 8.50967598 51.48963928 C8.48537759 49.01971608 8.45536068 46.54992136 8.42407227 44.08007812 C8.41543907 43.00113281 8.41543907 43.00113281 8.40663147 41.90039062 C8.33850975 37.13943938 7.85236642 32.54731655 7.21875 27.828125 C7.19702148 25.359375 7.19702148 25.359375 7.33984375 23.328125 C7.38818359 22.58691406 7.43652344 21.84570312 7.48632812 21.08203125 C7.54240234 20.33824219 7.59847656 19.59445313 7.65625 18.828125 C7.70845703 18.05339844 7.76066406 17.27867187 7.81445312 16.48046875 C7.94241902 14.59588013 8.07960596 12.71192129 8.21875 10.828125 C7.55488281 10.99570313 6.89101563 11.16328125 6.20703125 11.3359375 C-0.98313444 12.99439908 -0.98313444 12.99439908 -4.78125 12.203125 C-7.16452934 10.56462046 -7.98597824 9.61157617 -8.78125 6.828125 C-8.59375 4.203125 -8.59375 4.203125 -7.78125 1.828125 C-4.43973999 -0.39954834 -3.80962796 -0.36759568 0 0 Z " fill="#070503" transform="translate(310.78125,151.171875)"/>
<path d="M0 0 C10.12038123 10.92231319 10.97877083 20.92800793 10.8581543 35.32836914 C10.8396892 37.61681053 10.83764652 39.90485061 10.83789062 42.19335938 C10.80023804 53.36436767 10.80023804 53.36436767 9.65234375 55.66015625 C10.31234375 55.66015625 10.97234375 55.66015625 11.65234375 55.66015625 C12.14734375 59.62015625 12.14734375 59.62015625 12.65234375 63.66015625 C16.11734375 58.71015625 16.11734375 58.71015625 19.65234375 53.66015625 C21.63234375 54.32015625 23.61234375 54.98015625 25.65234375 55.66015625 C25.09984667 61.67623561 23.78617625 66.87252064 21.71484375 72.53515625 C21.44994141 73.293125 21.18503906 74.05109375 20.91210938 74.83203125 C18.9175895 80.3949105 18.9175895 80.3949105 16.65234375 82.66015625 C10.82633273 83.06899913 5.2154583 82.52991674 -0.34765625 80.66015625 C-1.33765625 79.67015625 -1.33765625 79.67015625 -2.34765625 78.66015625 C-1.97265625 76.53515625 -1.97265625 76.53515625 -1.34765625 74.66015625 C-4.31880113 75.70879562 -6.62063511 76.85005459 -9.22265625 78.66015625 C-17.17531723 83.74985928 -27.20216389 83.9365887 -36.34765625 82.66015625 C-43.05581823 81.07606366 -49.98273784 78.56842691 -54.421875 73.109375 C-55.7056314 70.62646506 -56.62117167 68.35401521 -57.34765625 65.66015625 C-57.5796875 65.01175781 -57.81171875 64.36335938 -58.05078125 63.6953125 C-58.83961419 58.28765513 -55.18253267 51.62975244 -52.28515625 47.16015625 C-46.52049643 39.72188551 -37.39202194 36.6499167 -28.34765625 34.66015625 C-24.49182201 34.4288062 -21.10270695 34.77661491 -17.34765625 35.66015625 C-16.85265625 34.67015625 -16.85265625 34.67015625 -16.34765625 33.66015625 C-15.11015625 33.39203125 -13.87265625 33.12390625 -12.59765625 32.84765625 C-8.15841996 31.75984339 -5.81682159 30.72233149 -3.34765625 26.66015625 C-2.7359028 20.44341847 -3.26177833 14.44522312 -6.78515625 9.16015625 C-11.26726026 4.08688744 -17.57929271 0.52032445 -24.41015625 0.09765625 C-31.02972526 1.04330897 -37.06434161 3.30601294 -41.34765625 8.66015625 C-41.67765625 9.32015625 -42.00765625 9.98015625 -42.34765625 10.66015625 C-43.00765625 10.66015625 -43.66765625 10.66015625 -44.34765625 10.66015625 C-44.34765625 12.97015625 -44.34765625 15.28015625 -44.34765625 17.66015625 C-41.55827413 18.07905843 -41.55827413 18.07905843 -38.34765625 17.66015625 C-36.66103167 16.0136894 -34.99253919 14.34832558 -33.34765625 12.66015625 C-30.72824968 12.66015625 -29.70323789 13.40616936 -27.59765625 14.91015625 C-26.34765625 16.66015625 -26.34765625 16.66015625 -25.84765625 19.09765625 C-26.34765625 21.66015625 -26.34765625 21.66015625 -28.28515625 23.72265625 C-33.05108417 26.73783514 -37.66122169 29.60533105 -43.41015625 29.72265625 C-47.98256854 28.068805 -52.75198067 25.95612832 -55.59375 21.8671875 C-56.58357231 18.96952115 -56.42269696 16.70410657 -56.16015625 13.66015625 C-56.08410156 12.62890625 -56.00804687 11.59765625 -55.9296875 10.53515625 C-55.30512087 7.45004862 -54.52522756 5.9079718 -52.34765625 3.66015625 C-51.68765625 3.66015625 -51.02765625 3.66015625 -50.34765625 3.66015625 C-50.13109375 3.07621094 -49.91453125 2.49226562 -49.69140625 1.890625 C-47.90266225 -1.07848205 -45.79745616 -2.23805723 -42.84765625 -4.02734375 C-41.86796875 -4.62933594 -40.88828125 -5.23132813 -39.87890625 -5.8515625 C-27.92058596 -12.88261193 -9.6864197 -9.65418536 0 0 Z " fill="#080604" transform="translate(457.34765625,162.33984375)"/>
<path d="M0 0 C1.15124828 1.20461741 2.27812751 2.43316893 3.375 3.6875 C3.93574219 4.21085937 4.49648438 4.73421875 5.07421875 5.2734375 C10.98376334 11.14005561 12.39643823 18.69497987 12.48046875 26.80859375 C12.47088695 29.12007574 12.43636412 31.4294829 12.38818359 33.74047852 C12.20793502 44.76278761 13.3650662 55.72192886 14.375 66.6875 C14.84550781 65.97722656 15.31601562 65.26695312 15.80078125 64.53515625 C16.42339844 63.61605469 17.04601562 62.69695312 17.6875 61.75 C18.30238281 60.83347656 18.91726563 59.91695313 19.55078125 58.97265625 C21.375 56.6875 21.375 56.6875 24.375 55.6875 C26.5625 57.125 26.5625 57.125 28.375 58.6875 C27.60711036 63.39784745 26.07866863 67.76427083 24.5 72.25 C24.24347656 73.00474609 23.98695313 73.75949219 23.72265625 74.53710938 C21.09171852 82.03990918 21.09171852 82.03990918 18.375 84.6875 C12.3584636 85.29935116 5.37153139 84.93489854 0.375 81.1875 C-0.625 79.6875 -0.625 79.6875 -0.625 77.6875 C0.035 77.6875 0.695 77.6875 1.375 77.6875 C0.385 76.6975 0.385 76.6975 -0.625 75.6875 C-1.09808594 76.08582031 -1.57117188 76.48414063 -2.05859375 76.89453125 C-11.3056812 84.30301651 -20.7070713 86.04546353 -32.41748047 85.01904297 C-39.86658839 83.90027626 -46.8931676 80.7718269 -51.92578125 75.08984375 C-54.89231681 70.24109252 -56.59754438 65.68084498 -55.42578125 60.015625 C-52.86265129 52.5637935 -49.79075359 46.36525284 -42.6328125 42.609375 C-41.97023438 42.30515625 -41.30765625 42.0009375 -40.625 41.6875 C-39.449375 41.11 -38.27375 40.5325 -37.0625 39.9375 C-29.70523381 37.26213048 -22.35142392 37.5733164 -14.625 37.6875 C-14.13 36.6975 -14.13 36.6975 -13.625 35.6875 C-11.6640625 34.87109375 -11.6640625 34.87109375 -9.25 34.125 C-8.45851563 33.87621094 -7.66703125 33.62742187 -6.8515625 33.37109375 C-5.74941406 33.03271484 -5.74941406 33.03271484 -4.625 32.6875 C-3.635 32.3575 -2.645 32.0275 -1.625 31.6875 C-0.78203776 20.37635531 -0.78203776 20.37635531 -5.625 10.6875 C-10.52790272 6.29638253 -15.18209058 3.09254817 -21.8125 2.3125 C-28.0004681 2.9211526 -33.27207142 4.40574541 -37.8203125 8.81640625 C-41.80789582 13.62193264 -41.80789582 13.62193264 -42.625 19.6875 C-40.315 20.0175 -38.005 20.3475 -35.625 20.6875 C-35.295 19.6975 -34.965 18.7075 -34.625 17.6875 C-33.375 15.9375 -33.375 15.9375 -31.625 14.6875 C-29.0625 14.8125 -29.0625 14.8125 -26.625 15.6875 C-24.33486347 19.1227048 -24.44657027 20.672831 -24.625 24.6875 C-26.82412496 25.89551248 -29.03161819 27.07831947 -31.25 28.25 C-32.17619141 28.76336914 -32.17619141 28.76336914 -33.12109375 29.28710938 C-37.39997946 31.51663404 -40.00036976 32.10451762 -44.625 30.6875 C-46.890625 29.63671875 -46.890625 29.63671875 -48.875 28.375 C-49.54015625 27.96636719 -50.2053125 27.55773437 -50.890625 27.13671875 C-52.93812282 25.42585909 -53.73036241 24.19884309 -54.625 21.6875 C-55.04713123 16.91815772 -54.71908726 12.45622552 -52.16796875 8.33203125 C-49.02626298 4.68381954 -45.53782887 1.49671047 -41.625 -1.3125 C-40.72652344 -1.97765625 -39.82804687 -2.6428125 -38.90234375 -3.328125 C-27.84288726 -10.02443477 -9.92266753 -8.35394104 0 0 Z " fill="#070503" transform="translate(365.625,400.3125)"/>
<path d="M0 0 C10.2000475 -0.11590963 20.36947943 0.02147445 30.5625 0.4375 C31.56023437 0.47673584 32.55796875 0.51597168 33.5859375 0.55639648 C36.39275606 0.6787486 39.19572583 0.82943684 42 1 C42.78479736 1.04318359 43.56959473 1.08636719 44.37817383 1.13085938 C54.87615899 1.96419633 68.81370695 7.07740623 76.2421875 14.73046875 C89.77501264 32.20284965 94.37350486 49.02842553 93 71 C92.95987793 71.74620605 92.91975586 72.49241211 92.87841797 73.26123047 C91.76211944 91.58747466 82.54428493 102.19919314 69.43359375 114.2109375 C52.83427715 126.4139664 32.20411296 125.69381556 12.621521 125.87886047 C7.6808368 125.94228746 2.89064732 126.31783997 -2 127 C-2 126.34 -2 125.68 -2 125 C-8.79239754 124.86200547 -15.36848789 125.26925337 -22.1171875 126.07421875 C-25.4492596 125.9884337 -26.61006221 125.24561787 -29 123 C-28.64788375 120.39433972 -28.34006817 118.47433456 -26.79296875 116.31640625 C-24.25749704 114.45485077 -22.70155099 114.86227029 -19.625 115.25 C-18.68914062 115.35828125 -17.75328125 115.4665625 -16.7890625 115.578125 C-14.17121246 115.97410232 -11.59377068 116.47177041 -9 117 C-8.98969254 116.20075607 -8.97938507 115.40151215 -8.96876526 114.57804871 C-8.83747265 104.44780893 -8.70184403 94.31763214 -8.5625 84.1875 C-8.55147877 83.38605309 -8.54045753 82.58460617 -8.52910233 81.75887299 C-8.20781746 58.49987052 -7.83970938 35.24725981 -7 12 C-8.26457031 12.03480469 -9.52914062 12.06960938 -10.83203125 12.10546875 C-12.49217423 12.13360677 -14.15233156 12.16090691 -15.8125 12.1875 C-17.06256836 12.22520508 -17.06256836 12.22520508 -18.33789062 12.26367188 C-19.54155273 12.27817383 -19.54155273 12.27817383 -20.76953125 12.29296875 C-21.87711792 12.31653442 -21.87711792 12.31653442 -23.00708008 12.34057617 C-25.56964924 11.9026509 -26.430711 11.03525226 -28 9 C-28.4375 6.5 -28.4375 6.5 -28 4 C-25.71977742 1.73058416 -24.37187734 1.04285006 -21.15234375 0.671875 C-20.09144531 0.69765625 -19.03054687 0.7234375 -17.9375 0.75 C-16.22820312 0.78867187 -16.22820312 0.78867187 -14.484375 0.828125 C-9.63806968 1.06718042 -4.82163374 1.45889481 0 2 C0 1.34 0 0.68 0 0 Z M3 11 C2.89761863 38.0664832 2.88743738 65.12536072 3.4375 92.1875 C3.45714813 93.22704834 3.47679626 94.26659668 3.49703979 95.33764648 C3.55361143 98.26040756 3.61712356 101.18291789 3.68359375 104.10546875 C3.70031128 104.96859177 3.71702881 105.83171478 3.73425293 106.72099304 C3.8182683 110.04284641 3.94277572 112.82832715 5 116 C11.25335799 119.126679 21.30313669 117.01084729 28 116 C29.75032742 116.05253747 31.50033907 116.11613549 33.25 116.1875 C38.50574152 116.24509717 42.52135756 115.04398299 47.359375 113.07421875 C49.84097903 112.06469048 52.31066089 111.26845261 54.875 110.5 C58.62044756 109.25372718 61.06644438 107.70789749 64 105 C64.61617187 104.51789063 65.23234375 104.03578125 65.8671875 103.5390625 C75.18581978 96.04899203 80.98720221 84.83247832 82.75 73 C82.85164333 71.66793737 82.93404572 70.33430591 83 69 C83.07476562 68.23945313 83.14953125 67.47890625 83.2265625 66.6953125 C84.09617706 51.63724984 77.54228559 32.71329154 67.66015625 21.296875 C62.00559172 16.06569717 57.36589193 13.86773833 49.625 13.5 C46.10458619 13.33196115 43.19509942 13.06302842 39.83203125 11.9765625 C34.54059284 10.62808176 29.49689448 10.78729407 24.0625 10.875 C22.46438477 10.88853516 22.46438477 10.88853516 20.83398438 10.90234375 C18.22241966 10.92576586 15.61133063 10.95856548 13 11 C13 11.66 13 12.32 13 13 C9.7 12.34 6.4 11.68 3 11 Z " fill="#050303" transform="translate(155,359)"/>
<path d="M0 0 C0.20496094 -0.56589844 0.40992188 -1.13179688 0.62109375 -1.71484375 C0.89050781 -2.44832031 1.15992188 -3.18179688 1.4375 -3.9375 C1.70433594 -4.66839844 1.97117187 -5.39929688 2.24609375 -6.15234375 C3 -8 3 -8 4 -9 C6.4375 -9.1875 6.4375 -9.1875 9 -9 C11 -7 11 -7 11.23046875 -4.84765625 C11.17979961 -1.5633749 11.1064421 1.71692635 11 5 C10.97099609 6.18408447 10.97099609 6.18408447 10.94140625 7.39208984 C10.87444409 9.97062553 10.78404699 12.54741427 10.6875 15.125 C10.66518311 15.96667725 10.64286621 16.80835449 10.61987305 17.67553711 C10.5243045 19.79163607 10.27352717 21.89947839 10 24 C7 26 7 26 4 26 C2.01820007 23.43100009 0.92184611 21.90245622 1.20703125 18.609375 C1.24303709 15.82594234 1.24303709 15.82594234 -0.9765625 13.68359375 C-1.85054688 12.94238281 -2.72453125 12.20117188 -3.625 11.4375 C-4.48351562 10.69371094 -5.34203125 9.94992188 -6.2265625 9.18359375 C-7.14179688 8.46300781 -8.05703125 7.74242187 -9 7 C-10.36511719 5.89978516 -10.36511719 5.89978516 -11.7578125 4.77734375 C-15.99524118 2.45441598 -19.48544289 2.25051917 -24.25 2.125 C-25.0968335 2.0938208 -25.94366699 2.0626416 -26.81616211 2.03051758 C-32.79145663 1.87597915 -38.28145653 2.12439929 -44 4 C-45.25490234 4.38671875 -45.25490234 4.38671875 -46.53515625 4.78125 C-57.73749789 8.70122475 -64.87459567 16.97397299 -70.21875 27.37109375 C-76.4848286 41.82579779 -79.04111189 60.40061462 -74.375 75.6875 C-72.28361006 80.93822367 -69.43387958 85.52737184 -66 90 C-65.40574219 90.8146875 -64.81148437 91.629375 -64.19921875 92.46875 C-58.0078714 99.59484784 -47.00096723 107.18198107 -37.42578125 108.30078125 C-25.4380763 108.62569765 -12.85080706 106.75958587 -3.828125 98.2890625 C0.7235173 92.7693092 0.41534238 85.40070512 0.875 78.5625 C0.9897355 77.14888738 1.10690194 75.73546986 1.2265625 74.32226562 C1.51247054 70.88331139 1.76528046 67.44287134 2 64 C0.78872437 64.21112427 0.78872437 64.21112427 -0.44702148 64.42651367 C-1.51509033 64.60931885 -2.58315918 64.79212402 -3.68359375 64.98046875 C-4.73861084 65.16246826 -5.79362793 65.34446777 -6.88061523 65.53198242 C-11.06839206 66.16029644 -14.77169969 66.33557939 -19 66 C-21.29108071 64.17861693 -21.91746426 63.41267869 -22.5 60.5 C-22 58 -22 58 -20.07836914 56.38232422 C-15.78641921 54.45504842 -11.90519535 54.46441016 -7.24609375 54.3828125 C-6.30822525 54.35774628 -5.37035675 54.33268005 -4.40406799 54.30685425 C-2.42652428 54.25799197 -0.44878895 54.2164102 1.52905273 54.18164062 C4.5561586 54.12511841 7.581192 54.03674087 10.60742188 53.9453125 C12.53120747 53.90172638 14.45503621 53.85999655 16.37890625 53.8203125 C17.28314835 53.79236603 18.18739044 53.76441956 19.11903381 53.73562622 C25.31296432 53.65813884 25.31296432 53.65813884 28.58178711 55.28466797 C30.85429466 58.03327152 30.31630076 60.58395177 30 64 C29 65 29 65 25.40234375 65.09765625 C23.91403133 65.0909822 22.42573568 65.07902183 20.9375 65.0625 C20.17888672 65.05798828 19.42027344 65.05347656 18.63867188 65.04882812 C16.75908129 65.0370068 14.87953101 65.01907078 13 65 C13.01015137 65.70568115 13.02030273 66.4113623 13.03076172 67.13842773 C13.10349556 76.58566359 12.72956229 85.98999964 12.25537109 95.42358398 C12.1237061 98.08869058 12.00517364 100.7541994 11.88671875 103.41992188 C11.8028859 105.12503965 11.71827919 106.83011959 11.6328125 108.53515625 C11.58267502 109.72263206 11.58267502 109.72263206 11.53152466 110.93409729 C11.32733477 114.71454863 11.1022078 117.78042655 9 121 C7.35 120.67 5.7 120.34 4 120 C2.82827534 116.01613614 1.781658 112.07729712 1 108 C0.09378906 108.48210937 -0.81242187 108.96421875 -1.74609375 109.4609375 C-17.65382352 117.77937733 -31.39988068 118.92173359 -49 114 C-60.69979306 110.30946125 -68.56623361 106.41253999 -74.5625 95.51171875 C-75.92634536 93.12869547 -77.41472228 91.07962284 -79.125 88.9375 C-88.97877328 76.09148142 -89.28165671 60.32692852 -87.60546875 44.83984375 C-86.18015769 34.5183213 -82.21601516 25.91531669 -77 17 C-76.53851563 16.19820312 -76.07703125 15.39640625 -75.6015625 14.5703125 C-67.97053955 3.05440514 -53.76962208 -4.90037844 -40.625 -7.8125 C-25.46239618 -10.44352353 -13.13225338 -8.44216289 0 0 Z " fill="#070503" transform="translate(167,128)"/>
<path d="M0 0 C4.63721513 -0.57199129 9.33679454 -0.18033907 14 0 C14.75055664 0.02078613 15.50111328 0.04157227 16.27441406 0.06298828 C18.57981373 0.1282902 20.88319036 0.21649741 23.1875 0.3125 C24.28300171 0.34585449 24.28300171 0.34585449 25.40063477 0.37988281 C28.34552667 0.53336703 30.50371598 0.65997174 32.97265625 2.3515625 C34.55907697 4.89707407 34.24869208 7.0778681 34 10 C33.67 10.66 33.34 11.32 33 12 C25.375 11.125 25.375 11.125 22 10 C21.90234848 10.56112991 21.80469696 11.12225983 21.7040863 11.70039368 C20.30140809 19.24633597 18.18919998 26.51317698 15.97265625 33.85546875 C15.57885641 35.16953768 15.1853428 36.48369242 14.792099 37.79792786 C13.97217516 40.5343938 13.14903347 43.26986411 12.32348633 46.00463867 C11.27080275 49.49267913 10.22597135 52.98301337 9.18349552 56.47411633 C8.37407299 59.18177688 7.5606512 61.88822332 6.74603081 64.59432411 C6.17285631 66.50072778 5.60287877 68.40809171 5.03297424 70.31547546 C3.29758685 76.048423 1.46050026 81.54164884 -1 87 C-1.55598815 88.6403666 -2.08305689 90.29104577 -2.5703125 91.953125 C-2.82683594 92.819375 -3.08335937 93.685625 -3.34765625 94.578125 C-3.60417969 95.45984375 -3.86070312 96.3415625 -4.125 97.25 C-4.64814142 99.0261289 -5.17156655 100.80217427 -5.6953125 102.578125 C-5.92234863 103.35575195 -6.14938477 104.13337891 -6.38330078 104.93457031 C-6.89038281 106.63287354 -7.43952109 108.31856328 -8 110 C-8.66 110 -9.32 110 -10 110 C-9.95875 111.216875 -9.9175 112.43375 -9.875 113.6875 C-9.91211187 118.95738583 -10.78896631 121.72841462 -14.5 125.625 C-18.46934558 128.75505609 -23.16209835 129.82398833 -28 131 C-28 131.66 -28 132.32 -28 133 C-33.39657441 132.6627141 -37.16552029 129.55167643 -41 126 C-43.84057897 121.78494733 -45.36172399 117.12125017 -45 112 C-43.9556707 109.14029454 -42.60152946 106.58444239 -41 104 C-38.13275314 104.57344937 -37.1385485 104.8614515 -35 107 C-34.8046875 109.3828125 -34.8046875 109.3828125 -34.875 112.125 C-34.89304687 113.03507812 -34.91109375 113.94515625 -34.9296875 114.8828125 C-34.95289063 115.58148438 -34.97609375 116.28015625 -35 117 C-34.01 117 -33.02 117 -32 117 C-32 118.65 -32 120.3 -32 122 C-28.51750769 120.74243333 -25.93534151 119.2268108 -23 117 C-22.34 117 -21.68 117 -21 117 C-20.79697266 116.195625 -20.79697266 116.195625 -20.58984375 115.375 C-18.79347793 108.83493762 -16.25638018 102.8159372 -13.33764648 96.7109375 C-11.40924218 92.53092109 -10.56720606 89.57318931 -11 85 C-12.07482782 82.31212527 -13.19227238 79.82738036 -14.49609375 77.2578125 C-15.23731701 75.74209117 -15.97667891 74.22545843 -16.71435547 72.70800781 C-17.0950116 71.93042114 -17.47566772 71.15283447 -17.86785889 70.35168457 C-19.67315298 66.60172601 -21.35656922 62.80016643 -23.03515625 58.9921875 C-23.36687836 58.24277893 -23.69860046 57.49337036 -24.04037476 56.72125244 C-25.04948174 54.43992861 -26.05627532 52.15759643 -27.0625 49.875 C-31.92152748 38.85933056 -36.81535227 27.86736242 -42 17 C-42.50966309 15.8872168 -43.01932617 14.77443359 -43.54443359 13.62792969 C-44.73433341 10.7743034 -44.73433341 10.7743034 -47.48046875 10.1953125 C-48.37378906 10.17210937 -49.26710938 10.14890625 -50.1875 10.125 C-51.08855469 10.08632813 -51.98960937 10.04765625 -52.91796875 10.0078125 C-53.94857422 10.00394531 -53.94857422 10.00394531 -55 10 C-55.04254356 8.00045254 -55.04080783 5.99958364 -55 4 C-53.42289255 2.42289255 -51.69915576 2.66938495 -49.51171875 2.46484375 C-48.11808105 2.33384277 -48.11808105 2.33384277 -46.69628906 2.20019531 C-45.70338867 2.11350586 -44.71048828 2.02681641 -43.6875 1.9375 C-42.6881543 1.84952148 -41.68880859 1.76154297 -40.65917969 1.67089844 C-24.98816642 0.35268069 -24.98816642 0.35268069 -20 1 C-18 3 -18 3 -17.8046875 4.9453125 C-17.86979167 6.96354167 -17.93489583 8.98177083 -18 11 C-22.62 11 -27.24 11 -32 11 C-31.39696045 12.44729492 -31.39696045 12.44729492 -30.78173828 13.92382812 C-22.85449219 32.94921875 -14.92724609 51.97460938 -7 71 C-0.33874799 51.438436 5.81085533 31.71464545 12 12 C7.38 12 2.76 12 -2 12 C-2.25 3.375 -2.25 3.375 0 0 Z " fill="#080604" transform="translate(529,392)"/>
<path d="M0 0 C1.20269531 -0.02578125 2.40539062 -0.0515625 3.64453125 -0.078125 C11.38594131 0.63883029 15.16191038 4.95332297 20.00390625 10.5546875 C28.05214759 20.48901044 31.15191632 28.30815524 30.1875 41.25 C28.38183922 52.01830427 20.59091676 58.2016367 12.421875 64.68359375 C7.5236506 68.11748883 1.94905357 67.85343387 -3.8125 67.25 C-7.1875 65.5 -7.1875 65.5 -9.8125 63.25 C-10.658125 62.651875 -11.50375 62.05375 -12.375 61.4375 C-15.91851746 58.25742023 -19.2794719 54.94804729 -20.23168945 50.12817383 C-20.34248122 47.754324 -20.29872088 45.43630477 -20.1875 43.0625 C-20.16534424 42.20188965 -20.14318848 41.3412793 -20.12036133 40.45458984 C-20.06829649 38.64299638 -20.00370121 36.83172419 -19.92724609 35.02099609 C-19.81248935 32.2497428 -19.74101823 29.47984818 -19.67578125 26.70703125 C-19.61970096 24.92960642 -19.56118776 23.15225634 -19.5 21.375 C-19.4779248 20.5497583 -19.45584961 19.7245166 -19.43310547 18.87426758 C-19.17548494 13.27535329 -18.22729596 8.89747161 -14.3125 4.60546875 C-9.38112203 0.76567184 -6.17833598 0.07895637 0 0 Z " fill="#FBD358" transform="translate(349.8125,164.75)"/>
<path d="M0 0 C0.99 0.66 1.98 1.32 3 2 C3.33 0.35 3.66 -1.3 4 -3 C6.97 -2.67 9.94 -2.34 13 -2 C11.99823135 3.38262858 10.36997382 8.4848818 8.6875 13.6875 C8.39166016 14.64978516 8.09582031 15.61207031 7.79101562 16.60351562 C7.34338867 17.98120117 7.34338867 17.98120117 6.88671875 19.38671875 C6.62076904 20.22420654 6.35481934 21.06169434 6.08081055 21.92456055 C4.74764017 24.48459699 3.69106377 25.057344 1 26 C-1.75 26.125 -1.75 26.125 -4 26 C-4.66 24.68 -5.32 23.36 -6 22 C-5.34 21.34 -4.68 20.68 -4 20 C-3.75746187 17.78927023 -3.75746187 17.78927023 -3.875 15.375 C-3.89304687 14.55773437 -3.91109375 13.74046875 -3.9296875 12.8984375 C-3.95289063 12.27195313 -3.97609375 11.64546875 -4 11 C-5.093125 10.360625 -6.18625 9.72125 -7.3125 9.0625 C-7.92738281 8.70285156 -8.54226563 8.34320313 -9.17578125 7.97265625 C-14.08200764 5.35670257 -19.70667081 5.08518634 -25.0390625 6.56640625 C-28.31368103 7.89715548 -30.6349455 9.41994055 -33 12 C-33.886875 12.391875 -34.77375 12.78375 -35.6875 13.1875 C-38.44328717 14.91796349 -38.44328717 14.91796349 -38.5625 18.875 C-38.27334843 23.03726083 -37.07014444 25.08729887 -34 28 C-28.724005 32.39453336 -24.04921197 34.80639924 -17.0625 35.25 C-6.14254461 36.34014783 4.96211157 41.56548779 12 50 C20.74685193 61.89807467 20.74685193 61.89807467 20 70 C18.20469999 76.6142632 13.5760785 81.27947465 8 85 C-2.6584503 90.79040809 -14.56619147 90.35542018 -25.9375 87 C-27.96484474 86.353405 -29.98848225 85.69426807 -32 85 C-32.144375 85.639375 -32.28875 86.27875 -32.4375 86.9375 C-33 89 -33 89 -34 90 C-37.47339901 90.38593322 -39.32127871 90.48651703 -42.20703125 88.41796875 C-44.68714523 85.07332702 -44.27641116 83.09951827 -43.875 79 C-43.81296387 78.34225586 -43.75092773 77.68451172 -43.68701172 77.00683594 C-43.4859671 75.00026533 -43.24889928 73.0011502 -43 71 C-42.79117188 69.24429688 -42.79117188 69.24429688 -42.578125 67.453125 C-41.47026594 59.62170752 -41.47026594 59.62170752 -39.6171875 57.171875 C-38 56 -38 56 -35 56 C-34.88785156 57.01320312 -34.77570312 58.02640625 -34.66015625 59.0703125 C-33.7371999 66.67475124 -33.7371999 66.67475124 -30.11328125 73.2265625 C-27.79754674 74.80271688 -25.59276988 75.94323123 -23 77 C-22.21496094 77.33257812 -21.42992187 77.66515625 -20.62109375 78.0078125 C-14.95231753 80.13720052 -10.38267622 81.0361871 -4.640625 78.5390625 C-2.96226562 77.59160156 -2.96226562 77.59160156 -1.25 76.625 C-0.12078125 75.99851562 1.0084375 75.37203125 2.171875 74.7265625 C5.01185057 73.14486616 5.01185057 73.14486616 7 71 C7.72739336 67.89731327 7.65512116 65.11182553 7 62 C2.67638815 55.06521807 -3.5268174 50.09062373 -11.375 47.9375 C-18.58724767 45.86296584 -18.58724767 45.86296584 -21.75 44.4375 C-24.33544663 43.29393707 -26.74790554 42.442381 -29.4375 41.625 C-37.04466307 39.05046692 -41.54828269 36.53765243 -45.4375 29.25 C-49.88757147 19.24653356 -49.88757147 19.24653356 -49 14 C-47.47689904 10.85631962 -45.38479308 8.52932599 -43 6 C-42.31035156 5.20980469 -41.62070312 4.41960937 -40.91015625 3.60546875 C-30.07649122 -8.18018793 -13.12251744 -9.68351287 0 0 Z " fill="#090604" transform="translate(592,157)"/>
<path d="M0 0 C13.61863629 7.955441 22.46883189 19.99428819 27.1796875 34.96484375 C30.22552488 47.38086141 26.1376827 58.83316032 20.1171875 69.6953125 C14.45583395 78.82732193 7.42244037 87.09036116 -2.4453125 91.6953125 C-11.36213437 93.61854859 -20.83541953 92.64766012 -28.859375 88.12890625 C-39.54325935 80.55943606 -46.62749232 69.60871849 -49.26000977 56.78979492 C-49.89439727 52.69390335 -49.97325389 48.64633178 -49.9453125 44.5078125 C-49.93967285 43.62867188 -49.9340332 42.74953125 -49.92822266 41.84375 C-49.67112905 28.07778723 -44.92182657 15.13403181 -35.35546875 5 C-25.82120911 -3.95052946 -11.78504231 -5.52544607 0 0 Z M-27.6328125 14.3828125 C-28.24253906 14.95257813 -28.85226563 15.52234375 -29.48046875 16.109375 C-37.20248333 24.07731362 -41.45866301 35.05189366 -42.0078125 46.0703125 C-41.69908143 57.25323791 -37.36473841 67.34365775 -29.6328125 75.3828125 C-22.97087653 80.51577956 -17.22500478 84.06473252 -8.6328125 83.3828125 C-1.49073797 81.47978783 4.03334466 78.43594981 8.3671875 72.3828125 C15.54065026 59.8072931 19.82977787 47.744309 16.6796875 33.2109375 C13.15577109 22.81538409 7.34211769 14.3702776 -2.6328125 9.3828125 C-16.19973576 8.14376305 -16.19973576 8.14376305 -27.6328125 14.3828125 Z " fill="#080504" transform="translate(261.6328125,153.6171875)"/>
<path d="M0 0 C2.75164432 -0.13517903 5.49664521 -0.23415251 8.25 -0.3125 C9.02730469 -0.35439453 9.80460937 -0.39628906 10.60546875 -0.43945312 C14.64921545 -0.52585797 16.3767844 -0.52441313 19.5625 2.15625 C21.2440288 5.48275263 21.27855218 7.15668075 20.75 10.8125 C20.62109375 11.78832031 20.4921875 12.76414062 20.359375 13.76953125 C20.24078125 14.50558594 20.1221875 15.24164063 20 16 C20.47308594 15.63648438 20.94617188 15.27296875 21.43359375 14.8984375 C22.83750098 13.83113961 24.24971875 12.77472625 25.66796875 11.7265625 C27.16574686 10.61765475 28.64911783 9.48886471 30.11328125 8.3359375 C36.09739119 3.8943495 41.60799154 2.50050057 49 2 C49.928125 1.93296875 50.85625 1.8659375 51.8125 1.796875 C54.53111014 1.8130572 56.47667724 1.98238261 59 3 C62.58855947 6.72352741 64 10.42903317 64 15.5625 C63.67 16.696875 63.34 17.83125 63 19 C62.76603516 20.04220703 62.76603516 20.04220703 62.52734375 21.10546875 C61.66303998 24.2478712 60.96891373 26.35055457 58.19921875 28.20703125 C54.24609447 29.83741584 51.12574282 30.48985157 47 29 C44.6875 27.9375 44.6875 27.9375 43 27 C43.30237899 23.47224511 44.02980851 21.96191135 46.25 19.125 C49 17 49 17 51.8125 17.1875 C52.534375 17.455625 53.25625 17.72375 54 18 C53.67 16.35 53.34 14.7 53 13 C47.1537946 11.34781152 43.73301255 12.44790385 38.44140625 15.33203125 C33.74269309 18.54219208 29.81432951 22.55701146 28 28 C24.55555556 31 24.55555556 31 22 31 C21.13613342 34.00782611 20.85224495 36.73527404 20.79467773 39.86035156 C20.77473251 40.82104553 20.75478729 41.7817395 20.73423767 42.77154541 C20.71752518 43.80084167 20.70081268 44.83013794 20.68359375 45.890625 C20.66281265 46.95037537 20.64203156 48.01012573 20.62062073 49.10198975 C20.55527814 52.48459438 20.49631119 55.86727612 20.4375 59.25 C20.39430025 61.54427878 20.35068549 63.83854979 20.30664062 66.1328125 C20.19961235 71.75512948 20.09830167 77.37752395 20 83 C23.3 83.33 26.6 83.66 30 84 C30.1875 87.375 30.1875 87.375 30 91 C26.17397998 93.55068001 23.37899674 93.04599767 19 92.6875 C17.86183838 92.60411377 17.86183838 92.60411377 16.70068359 92.51904297 C15.17607765 92.40554632 13.65180698 92.28744411 12.12792969 92.16455078 C10.26675569 92.02062796 8.40294464 91.91167527 6.5390625 91.80859375 C5.57742188 91.74800781 4.61578125 91.68742187 3.625 91.625 C2.37589844 91.55152344 2.37589844 91.55152344 1.1015625 91.4765625 C-1.45168997 90.89757216 -2.42734253 90.06633959 -4 88 C-3.91674918 85.33597368 -3.1579778 84.19747225 -1.5 82.125 C1 81 1 81 10 83 C10 59.24 10 35.48 10 11 C3.565 11.495 3.565 11.495 -3 12 C-4.25187763 5.74061187 -3.27679547 5.06413846 0 0 Z " fill="#070503" transform="translate(406,391)"/>
<path d="M0 0 C7.09308382 0.62914334 7.09308382 0.62914334 10.40625 1.0234375 C12.77660641 1.31557294 12.77660641 1.31557294 15.3359375 1.0234375 C17.73046875 1.2421875 17.73046875 1.2421875 19.36358643 2.79725647 C21.1915942 6.06699875 21.09333405 8.93949686 20.99511719 12.57983398 C20.98740799 13.31412125 20.97969879 14.04840851 20.97175598 14.8049469 C20.94242639 17.24150771 20.89128199 19.67709468 20.83984375 22.11328125 C20.81428265 23.83169269 20.78999321 25.55012347 20.76690674 27.26856995 C20.70201571 31.81649355 20.61832502 36.36389388 20.53118896 40.91143799 C20.46482241 44.53364633 20.41154159 48.1559852 20.35907745 51.77841759 C20.05695295 72.60920618 19.56099261 93.42531955 18.73046875 114.2421875 C19.35695313 114.30277344 19.9834375 114.36335938 20.62890625 114.42578125 C21.44617188 114.50957031 22.2634375 114.59335938 23.10546875 114.6796875 C24.32363281 114.80150391 24.32363281 114.80150391 25.56640625 114.92578125 C27.73046875 115.2421875 27.73046875 115.2421875 29.73046875 116.2421875 C29.91357943 120.2706224 29.67204892 122.72593995 27.73046875 126.2421875 C23.06739861 126.29156029 18.40448002 126.32789377 13.74121094 126.35205078 C12.15426992 126.36211938 10.5673475 126.37577517 8.98046875 126.39306641 C6.70177628 126.41727751 4.42332869 126.42866172 2.14453125 126.4375 C1.07726303 126.45298386 1.07726303 126.45298386 -0.01156616 126.46878052 C-1.7658479 126.46918172 -3.51949834 126.36420959 -5.26953125 126.2421875 C-7.26953125 124.2421875 -7.26953125 124.2421875 -7.46484375 122.296875 C-7.39973958 120.27864583 -7.33463542 118.26041667 -7.26953125 116.2421875 C-2.31953125 115.9121875 2.63046875 115.5821875 7.73046875 115.2421875 C7.73046875 80.5921875 7.73046875 45.9421875 7.73046875 10.2421875 C1.29546875 10.7371875 1.29546875 10.7371875 -5.26953125 11.2421875 C-10.26953125 8.2421875 -10.26953125 8.2421875 -11.26953125 5.2421875 C-8.58736139 -0.24987459 -5.55111256 -0.27878556 0 0 Z " fill="#070503" transform="translate(503.26953125,118.7578125)"/>
<path d="M0 0 C1.22093468 3.77936967 1.10970807 7.50583331 1.0625 11.4296875 C1.05382836 12.94897389 1.04528909 14.46826104 1.03686523 15.98754883 C1.03065155 16.7849649 1.02443787 17.58238098 1.01803589 18.40396118 C0.92209623 31.54834415 0.9944548 44.67488727 1.4375 57.8125 C1.47681641 59.03114746 1.51613281 60.24979492 1.55664062 61.50537109 C1.77327005 67.3951918 2.14626613 73.16734759 3 79 C3.81984375 79.09796875 4.6396875 79.1959375 5.484375 79.296875 C6.56203125 79.44640625 7.6396875 79.5959375 8.75 79.75 C9.81734375 79.88921875 10.8846875 80.0284375 11.984375 80.171875 C15.44035985 81.12092784 16.80968289 82.20184369 19 85 C19.375 87.625 19.375 87.625 19 90 C16.62623885 92.37376115 16.13196136 92.25747807 12.9050293 92.29052734 C11.63812508 92.3096669 11.63812508 92.3096669 10.34562683 92.32919312 C9.43106216 92.33141876 8.5164975 92.33364441 7.57421875 92.3359375 C6.16460625 92.3459227 6.16460625 92.3459227 4.72651672 92.35610962 C2.73509685 92.36624775 0.74364292 92.37092628 -1.24780273 92.37060547 C-4.29012441 92.37496792 -7.33098312 92.41124535 -10.37304688 92.44921875 C-12.3072867 92.45508886 -14.24153343 92.45905695 -16.17578125 92.4609375 C-17.08427322 92.47530853 -17.9927652 92.48967957 -18.92878723 92.50448608 C-23.25149358 92.47334219 -25.40625325 92.38683148 -29.11401367 89.97119141 C-29.73638916 89.32069824 -30.35876465 88.67020508 -31 88 C-30.64057546 85.48402821 -29.98468381 83.9778404 -28.53125 81.875 C-24.74434618 79.06988606 -21.32868133 79.56399107 -16.75 79.75 C-15.90953125 79.76804687 -15.0690625 79.78609375 -14.203125 79.8046875 C-12.13492605 79.85169202 -10.06731559 79.92343276 -8 80 C-8.02505615 79.26608032 -8.0501123 78.53216064 -8.07592773 77.77600098 C-8.31273811 70.83251669 -8.54824041 63.88898911 -8.78230286 56.94541168 C-8.90265869 53.37634355 -9.02350607 49.80729353 -9.14550781 46.23828125 C-9.26340244 42.78887296 -9.37996537 39.33942192 -9.49563599 35.88993835 C-9.56120391 33.9447018 -9.62812252 31.99951091 -9.69506836 30.05432129 C-9.89590208 24.03234036 -10.05262312 18.02534672 -10 12 C-10.59014893 11.91959473 -11.18029785 11.83918945 -11.78833008 11.75634766 C-14.46422373 11.3872044 -17.1383045 11.0062424 -19.8125 10.625 C-21.2056543 10.43550781 -21.2056543 10.43550781 -22.62695312 10.2421875 C-23.51962891 10.11328125 -24.41230469 9.984375 -25.33203125 9.8515625 C-26.56530151 9.67874756 -26.56530151 9.67874756 -27.82348633 9.50244141 C-30 9 -30 9 -33 7 C-32.34 5.35 -31.68 3.7 -31 2 C-27.33562232 1.4621552 -23.66829936 0.94785271 -20 0.4375 C-18.97003906 0.28603516 -17.94007813 0.13457031 -16.87890625 -0.02148438 C-10.96154913 -0.83182309 -5.88478094 -1.06803116 0 0 Z " fill="#070503" transform="translate(289,393)"/>
<path d="M0 0 C0 0.99 0 1.98 0 3 C0.99 3 1.98 3 3 3 C3.495 6.96 3.495 6.96 4 11 C7.465 6.05 7.465 6.05 11 1 C12.98 1.66 14.96 2.32 17 3 C16.44750292 9.01607936 15.1338325 14.21236439 13.0625 19.875 C12.79759766 20.63296875 12.53269531 21.3909375 12.25976562 22.171875 C10.26524575 27.73475425 10.26524575 27.73475425 8 30 C2.17398898 30.40884288 -3.43688545 29.86976049 -9 28 C-9.66 27.34 -10.32 26.68 -11 26 C-10.625 23.875 -10.625 23.875 -10 22 C-12.97114488 23.04863937 -15.27297886 24.18989834 -17.875 26 C-25.77713957 31.05736932 -35.89769325 31.34734928 -45 30 C-48.11748943 29.17633955 -51.04018957 28.08618478 -54 26.8125 C-54.68827881 26.52125244 -55.37655762 26.23000488 -56.08569336 25.92993164 C-58 25.01953125 -58 25.01953125 -61 23 C-61.9375 20.26171875 -61.9375 20.26171875 -62 18 C-60.35 17.34 -58.7 16.68 -57 16 C-57 14.35 -57 12.7 -57 11 C-56.01 11 -55.02 11 -54 11 C-53.67 12.98 -53.34 14.96 -53 17 C-52.278125 17.12375 -51.55625 17.2475 -50.8125 17.375 C-48 18 -48 18 -45.7109375 19.01171875 C-39.8196888 21.15939299 -32.95456224 21.05970299 -27.0703125 18.94921875 C-24.63982022 17.72676047 -22.32392111 16.41232774 -20 15 C-19.2678125 14.65453125 -18.535625 14.3090625 -17.78125 13.953125 C-15.84252176 13.13631961 -15.84252176 13.13631961 -15.0625 11.125 C-14 9 -14 9 -11.4375 7 C-8.91933482 4.93381319 -8.3380332 4.15497657 -8 1 C-2.25 0 -2.25 0 0 0 Z " fill="#070503" transform="translate(466,215)"/>
<path d="M0 0 C0.31054734 7.00456779 0.56280025 12.73438577 -3 19 C-3.30550781 19.57105469 -3.61101562 20.14210937 -3.92578125 20.73046875 C-7.85139979 27.19703311 -14.91329422 31.63776474 -22 34 C-29.93085598 34.67851643 -38.20868452 34.70167995 -45 30 C-45.73828125 28.1640625 -45.73828125 28.1640625 -46 26 C-46.10183594 25.21882813 -46.20367187 24.43765625 -46.30859375 23.6328125 C-46.64233231 17.14008059 -46.64233231 17.14008059 -44.94140625 14.12109375 C-41.30700602 10.19121382 -37.05730148 8.46164783 -32 7 C-31.34128906 6.80664062 -30.68257813 6.61328125 -30.00390625 6.4140625 C-28.33783017 5.93606146 -26.66909598 5.46734688 -25 5 C-24.34 4.67 -23.68 4.34 -23 4 C-19.89476795 3.56269513 -16.79004027 3.18547976 -13.67382812 2.83789062 C-8.93862595 2.26179778 -4.66287357 0 0 0 Z " fill="#F9D258" transform="translate(458,202)"/>
<path d="M0 0 C1.37654359 15.40964075 1.37654359 15.40964075 -3.4375 21.625 C-9.11654817 27.6061252 -16.35111985 33.31286606 -24.76171875 34.3359375 C-31.57683845 34.42692708 -38.23477386 34.00809546 -44 30 C-46.17021357 25.82284912 -46.8577142 21.64443113 -46 17 C-42.6132736 11.31903959 -38.20752203 9.01931439 -32 7 C-29.67612053 6.60612212 -27.34206251 6.26513915 -25 6 C-24.08992188 5.69449219 -23.17984375 5.38898438 -22.2421875 5.07421875 C-18.78992915 3.93039821 -15.37429902 3.16665714 -11.8125 2.4375 C-7.99807824 1.65349212 -3.85310729 0 0 0 Z " fill="#FAD258" transform="translate(368,442)"/>
<path d="M0 0 C-0.38313391 6.68502611 -0.88219309 12.2513172 -5.33203125 17.6015625 C-8.40296745 20.17625843 -12.11059545 20.23230232 -16 20 C-19.84676353 18.04164766 -21.60966175 16.58550738 -24 13 C-24.30078125 10.22265625 -24.30078125 10.22265625 -24.3125 7.0625 C-24.32925781 6.02222656 -24.34601563 4.98195313 -24.36328125 3.91015625 C-23.95725212 0.65755729 -23.23549374 -0.65138489 -21 -3 C-13.83421595 -7.18004069 -6.73640831 -3.28418999 0 0 Z " fill="#070503" transform="translate(294,364)"/>
<path d="M0 0 C3.3 0 6.6 0 10 0 C10 23.76 10 47.52 10 72 C8.02 71.67 6.04 71.34 4 71 C4.33 48.89 4.66 26.78 5 4 C3.35 4.33 1.7 4.66 0 5 C0 3.35 0 1.7 0 0 Z " fill="#E9C252" transform="translate(406,402)"/>
<path d="M0 0 C0 1.32 0 2.64 0 4 C2.97 4.495 2.97 4.495 6 5 C5.67 5.99 5.34 6.98 5 8 C5.66 8 6.32 8 7 8 C7.33 7.34 7.66 6.68 8 6 C9.32 6.33 10.64 6.66 12 7 C11.67 7.99 11.34 8.98 11 10 C9.87464844 9.98259766 9.87464844 9.98259766 8.7265625 9.96484375 C2.07662583 9.9062171 -4.40004873 10.18230692 -11 11 C-10.67 9.68 -10.34 8.36 -10 7 C-10.66 6.67 -11.32 6.34 -12 6 C-9.69 5.34 -7.38 4.68 -5 4 C-5.33 3.34 -5.66 2.68 -6 2 C-8.02463255 1.34786708 -8.02463255 1.34786708 -10 1 C-6.42181037 -1.33958553 -4.07775191 -0.9267618 0 0 Z " fill="#F4CF56" transform="translate(340,429)"/>
<path d="M0 0 C0.66 0.33 1.32 0.66 2 1 C1.67 1.66 1.34 2.32 1 3 C0.34 3 -0.32 3 -1 3 C-1.66 4.65 -2.32 6.3 -3 8 C-2.01 8 -1.02 8 0 8 C0 6.68 0 5.36 0 4 C0.99 4 1.98 4 3 4 C3 4.66 3 5.32 3 6 C2.34 6 1.68 6 1 6 C1.103125 6.886875 1.20625 7.77375 1.3125 8.6875 C1 12 1 12 -1.125 14.875 C-4.44467709 17.32867437 -5.96800439 17.54981758 -10 17 C-10.33 16.67 -10.66 16.34 -11 16 C-10.71269945 13.66055264 -10.38063221 11.3260857 -10 9 C-9.34 9 -8.68 9 -8 9 C-7.79375 8.2575 -7.5875 7.515 -7.375 6.75 C-5.60384411 3.20768823 -3.36572049 1.97553159 0 0 Z " fill="#F1CC55" transform="translate(423,164)"/>
<path d="M0 0 C0.66 0 1.32 0 2 0 C2 11.88 2 23.76 2 36 C-0.97 36 -3.94 36 -7 36 C-7 35.67 -7 35.34 -7 35 C-5.35 35 -3.7 35 -2 35 C-2.01047363 34.01080566 -2.02094727 33.02161133 -2.03173828 32.00244141 C-2.06789019 28.33857836 -2.09088282 24.67473114 -2.10986328 21.01074219 C-2.11993188 19.42380117 -2.13358767 17.83687875 -2.15087891 16.25 C-2.17509001 13.97130753 -2.18647422 11.69285994 -2.1953125 9.4140625 C-2.20563507 8.70255035 -2.21595764 7.99103821 -2.22659302 7.25796509 C-2.22699422 5.50368335 -2.12202209 3.75003291 -2 2 C-1.34 1.34 -0.68 0.68 0 0 Z " fill="#EDCB55" transform="translate(509,198)"/>
<path d="M0 0 C0.99 0.33 1.98 0.66 3 1 C2.34 1.66 1.68 2.32 1 3 C1.70339566 5.50965614 1.70339566 5.50965614 3 8 C5.04105639 8.88693303 5.04105639 8.88693303 7 9 C6.01 9 5.02 9 4 9 C3.67 9.99 3.34 10.98 3 12 C1.875 13.6875 1.875 13.6875 0 15 C-3.6875 15.1875 -3.6875 15.1875 -7 15 C-7.7109375 12.796875 -7.7109375 12.796875 -8 10 C-6.6015625 7.578125 -6.6015625 7.578125 -4.625 5.25 C-3.65433594 4.08210938 -3.65433594 4.08210938 -2.6640625 2.890625 C-1.79832306 1.90701493 -0.92655101 0.92655101 0 0 Z " fill="#F7D15C" transform="translate(330,406)"/>
<path d="M0 0 C2.475 0.495 2.475 0.495 5 1 C5.125 6.75 5.125 6.75 4 9 C4.99 8.67 5.98 8.34 7 8 C6.34 11.3 5.68 14.6 5 18 C4.67 18 4.34 18 4 18 C3.90897706 23.41080825 3.88174254 28.69355785 4.625 34.0625 C4.74875 35.361875 4.8725 36.66125 5 38 C4.34 38.66 3.68 39.32 3 40 C1.2910002 31.50077778 0.80946426 23.44396667 0.98632812 14.80151367 C1.07550666 9.7549643 0.73496943 4.99665265 0 0 Z " fill="#F4CE58" transform="translate(376,415)"/>
<path d="M0 0 C0.66 0.33 1.32 0.66 2 1 C0.625 3.5 0.625 3.5 -1 6 C-1.66 6 -2.32 6 -3 6 C-2.67 6.99 -2.34 7.98 -2 9 C-3.8125 11.5 -3.8125 11.5 -6 14 C-6.99 15.485 -6.99 15.485 -8 17 C-9.66014616 17.36442233 -11.32706064 17.69972883 -13 18 C-13.33 18.66 -13.66 19.32 -14 20 C-14.66 20 -15.32 20 -16 20 C-15.61402985 17.20171644 -15.19863427 16.1794116 -13.0625 14.25 C-11 13 -11 13 -9 13 C-8.9071875 12.42636719 -8.814375 11.85273438 -8.71875 11.26171875 C-7.83023015 8.46577857 -6.47425846 6.96881099 -4.5 4.8125 C-3.8709375 4.11769531 -3.241875 3.42289062 -2.59375 2.70703125 C-1.74091381 1.79357681 -0.88366526 0.88366526 0 0 Z " fill="#F0CC57" transform="translate(443,406)"/>
<path d="M0 0 C1 1 1 1 1.0625 3.5625 C1.041875 4.366875 1.02125 5.17125 1 6 C0.01 6.33 -0.98 6.66 -2 7 C-2 6.34 -2 5.68 -2 5 C-4.49552484 5.78130071 -4.49552484 5.78130071 -7 7 C-7.33 7.99 -7.66 8.98 -8 10 C-8.5625 8.0625 -8.5625 8.0625 -9 6 C-8.67 5.67 -8.34 5.34 -8 5 C-10.475 4.01 -10.475 4.01 -13 3 C-8.928581 -1.45917319 -5.75206293 -1.06519684 0 0 Z " fill="#E9C556" transform="translate(459,403)"/>
<path d="M0 0 C2.97 0 5.94 0 9 0 C9 1.32 9 2.64 9 4 C14.28 4 19.56 4 25 4 C25 4.33 25 4.66 25 5 C12.6220506 5.12350504 0.35134354 4.82637424 -12 4 C-9.50494038 1.50494038 -8.32671112 1.64051624 -4.875 1.375 C-3.96492187 1.30023438 -3.05484375 1.22546875 -2.1171875 1.1484375 C-1.06917969 1.07496094 -1.06917969 1.07496094 0 1 C0 0.67 0 0.34 0 0 Z " fill="#DBBA4B" transform="translate(167,355)"/>
<path d="M0 0 C1.5625 1 1.5625 1 3 3 C3.06745073 5.74861744 2.74713966 8.35411443 2 11 C1.34 11.66 0.68 12.32 0 13 C-0.37135915 15.52037964 -0.37135915 15.52037964 -0.4140625 18.4453125 C-0.45273437 19.52167969 -0.49140625 20.59804688 -0.53125 21.70703125 C-0.5621875 22.83496094 -0.593125 23.96289062 -0.625 25.125 C-0.66367187 26.26066406 -0.70234375 27.39632813 -0.7421875 28.56640625 C-0.83667601 31.37743956 -0.92223541 34.18846233 -1 37 C-1.33 37 -1.66 37 -2 37 C-2.04943465 32.21282458 -2.08573582 27.42579773 -2.10986328 22.63842773 C-2.11992142 21.00982068 -2.13356958 19.38123168 -2.15087891 17.75268555 C-2.17513574 15.41190128 -2.18648483 13.07135576 -2.1953125 10.73046875 C-2.20563507 10.00224411 -2.21595764 9.27401947 -2.22659302 8.52372742 C-2.22742249 4.78724931 -2.12883296 3.19324944 0 0 Z " fill="#DAB94C" transform="translate(291,397)"/>
<path d="M0 0 C2.4375 0.75 2.4375 0.75 5 2 C5.97970825 4.36762827 6.09096455 5.65140859 5.44140625 8.140625 C5.15136719 8.83671875 4.86132812 9.5328125 4.5625 10.25 C4.27503906 10.95640625 3.98757813 11.6628125 3.69140625 12.390625 C3.46324219 12.92171875 3.23507812 13.4528125 3 14 C2.87367188 13.37480469 2.74734375 12.74960937 2.6171875 12.10546875 C1.7863211 9.27105742 0.47208932 8.5268787 -2 7 C-2.99 6.67 -3.98 6.34 -5 6 C-3.35 4.02 -1.7 2.04 0 0 Z " fill="#130D06" transform="translate(388,456)"/>
<path d="M0 0 C2.31 0 4.62 0 7 0 C7 8.25 7 16.5 7 25 C6.34 25 5.68 25 5 25 C4.93941406 23.80761719 4.87882812 22.61523438 4.81640625 21.38671875 C4.73198851 19.82030075 4.64734113 18.25389512 4.5625 16.6875 C4.50352539 15.50897461 4.50352539 15.50897461 4.44335938 14.30664062 C4.38051758 13.1706543 4.38051758 13.1706543 4.31640625 12.01171875 C4.27974854 11.31522217 4.24309082 10.61872559 4.20532227 9.90112305 C4.04418847 7.7783428 4.04418847 7.7783428 3 5 C3.9375 2.8125 3.9375 2.8125 5 1 C3.35 1 1.7 1 0 1 C0 0.67 0 0.34 0 0 Z " fill="#F2CE55" transform="translate(504,129)"/>
<path d="M0 0 C-1.625 2 -1.625 2 -4 4 C-7.25 4.25 -7.25 4.25 -10 4 C-10 3.34 -10 2.68 -10 2 C-19.9 2 -29.8 2 -40 2 C-40 1.67 -40 1.34 -40 1 C-38.99098633 0.97494385 -37.98197266 0.9498877 -36.94238281 0.92407227 C-33.19258304 0.82977591 -29.44295892 0.72960979 -25.69335938 0.62768555 C-24.07165643 0.58442069 -22.44991042 0.54273972 -20.828125 0.50268555 C-18.49465973 0.44477786 -16.16140957 0.38114302 -13.828125 0.31640625 C-13.10506165 0.29969376 -12.38199829 0.28298126 -11.63702393 0.26576233 C-0.14237913 -0.07118957 -0.14237913 -0.07118957 0 0 Z " fill="#B79B40" transform="translate(202,483)"/>
<path d="M0 0 C0.99 0.33 1.98 0.66 3 1 C3.33 3.31 3.66 5.62 4 8 C5.65 8.33 7.3 8.66 9 9 C9 9.33 9 9.66 9 10 C7.56344146 10.08131463 6.1255517 10.13933559 4.6875 10.1875 C3.48673828 10.23970703 3.48673828 10.23970703 2.26171875 10.29296875 C0 10 0 10 -1.76953125 8.6484375 C-3 7 -3 7 -3.375 4.4375 C-3.25125 3.633125 -3.1275 2.82875 -3 2 C-2.01 1.34 -1.02 0.68 0 0 Z " fill="#17110A" transform="translate(148,184)"/>
<path d="M0 0 C0.33 0 0.66 0 1 0 C1.33 1.65 1.66 3.3 2 5 C2.66 5 3.32 5 4 5 C5.34721372 12.47091243 5.34721372 12.47091243 3.6875 15 C2 16 2 16 0 16 C-0.66 11.71 -1.32 7.42 -2 3 C-1.34 3 -0.68 3 0 3 C0 2.01 0 1.02 0 0 Z " fill="#F8D057" transform="translate(290,185)"/>
<path d="M0 0 C0.66 0.33 1.32 0.66 2 1 C2 1.66 2 2.32 2 3 C1.34 3 0.68 3 0 3 C1.65 6.3 3.3 9.6 5 13 C-1.75 11.125 -1.75 11.125 -4 10 C-4.25 7.25 -4.25 7.25 -4 4 C-2 1.625 -2 1.625 0 0 Z " fill="#FDD45E" transform="translate(365,475)"/>
<path d="M0 0 C0 5.28 0 10.56 0 16 C-0.33 16 -0.66 16 -1 16 C-1 13.69 -1 11.38 -1 9 C-1.99 9.33 -2.98 9.66 -4 10 C-3.67 8.68 -3.34 7.36 -3 6 C-3.66 6 -4.32 6 -5 6 C-5 5.34 -5 4.68 -5 4 C-7.64 4 -10.28 4 -13 4 C-13 3.67 -13 3.34 -13 3 C-11.2092015 2.49689942 -9.41733089 1.99761372 -7.625 1.5 C-6.62726563 1.2215625 -5.62953125 0.943125 -4.6015625 0.65625 C-2 0 -2 0 0 0 Z " fill="#E4C04E" transform="translate(368,442)"/>
<path d="M0 0 C3.23060419 0.55700072 5.0658223 1.29215122 7 4 C7.375 6.5625 7.375 6.5625 7 9 C6.01 9.66 5.02 10.32 4 11 C2.515 8.03 2.515 8.03 1 5 C-0.65 5 -2.3 5 -4 5 C-2.68 3.35 -1.36 1.7 0 0 Z " fill="#1D1508" transform="translate(424,175)"/>
<path d="M0 0 C0.33 0.99 0.66 1.98 1 3 C1.66 3 2.32 3 3 3 C3 5.97 3 8.94 3 12 C4.134375 12.144375 5.26875 12.28875 6.4375 12.4375 C10 13 10 13 11 14 C11.04092937 16.33297433 11.04241723 18.66705225 11 21 C10.67 21 10.34 21 10 21 C10 19.02 10 17.04 10 15 C6.7 14.67 3.4 14.34 0 14 C0 9.38 0 4.76 0 0 Z " fill="#E9C758" transform="translate(426,460)"/>
<path d="M0 0 C0.66 0.99 1.32 1.98 2 3 C1.67 3.66 1.34 4.32 1 5 C1.99 4.34 2.98 3.68 4 3 C4.99 3 5.98 3 7 3 C7.33 3.99 7.66 4.98 8 6 C6.9375 7.5 6.9375 7.5 5 9 C1.3125 9.1875 1.3125 9.1875 -2 9 C-2.6875 6.75 -2.6875 6.75 -3 4 C-1.5625 1.6875 -1.5625 1.6875 0 0 Z " fill="#F2CB51" transform="translate(325,412)"/>
<path d="M0 0 C2.00720923 0.28674418 4.0085944 0.61866701 6 1 C6.33 1.99 6.66 2.98 7 4 C5.4045651 6.05727132 3.73473712 8.05874656 2 10 C1.67 10.66 1.34 11.32 1 12 C0.34 12 -0.32 12 -1 12 C-1.02687279 10.18757948 -1.04633715 8.37504767 -1.0625 6.5625 C-1.07410156 5.55316406 -1.08570313 4.54382813 -1.09765625 3.50390625 C-1 1 -1 1 0 0 Z " fill="#F1CB56" transform="translate(403,201)"/>
<path d="M0 0 C0.33 0.66 0.66 1.32 1 2 C2.65 1.34 4.3 0.68 6 0 C6 3.61137513 5.07469918 4.74732191 3.0625 7.6875 C2.24458984 8.89986328 2.24458984 8.89986328 1.41015625 10.13671875 C0.94480469 10.75160156 0.47945313 11.36648438 0 12 C-0.33 12 -0.66 12 -1 12 C-1.33 8.37 -1.66 4.74 -2 1 C-1.34 0.67 -0.68 0.34 0 0 Z " fill="#EDCA58" transform="translate(380,456)"/>
<path d="M0 0 C0.33 0 0.66 0 1 0 C0.98839844 0.85722656 0.97679687 1.71445313 0.96484375 2.59765625 C0.9181959 8.50860552 0.91750084 14.18156704 2 20 C0 17 0 17 0 14 C-0.66 14 -1.32 14 -2 14 C-2 14.99 -2 15.98 -2 17 C-2.99 17.33 -3.98 17.66 -5 18 C-5 15.69 -5 13.38 -5 11 C-4.03320312 10.64808594 -4.03320312 10.64808594 -3.046875 10.2890625 C-0.7922092 9.18838927 -0.7922092 9.18838927 -0.390625 6.8359375 C-0.34421875 6.02382812 -0.2978125 5.21171875 -0.25 4.375 C-0.19328125 3.55773437 -0.1365625 2.74046875 -0.078125 1.8984375 C-0.05234375 1.27195313 -0.0265625 0.64546875 0 0 Z " fill="#E1C053" transform="translate(318,171)"/>
<path d="M0 0 C0.99 0.33 1.98 0.66 3 1 C2.71517632 2.41805831 2.42181856 3.83440379 2.125 5.25 C1.96257813 6.03890625 1.80015625 6.8278125 1.6328125 7.640625 C1.00849925 9.96831144 0.15161458 11.89031952 -1 14 C-3.51756835 10.22364747 -3.63772451 7.43634442 -3 3 C-1.5 1 -1.5 1 0 0 Z " fill="#EDCA58" transform="translate(556,169)"/>
<path d="M0 0 C5.61 0 11.22 0 17 0 C17 0.33 17 0.66 17 1 C11.72 1 6.44 1 1 1 C0.67 4.63 0.34 8.26 0 12 C-1.32 11.67 -2.64 11.34 -4 11 C-3.34764225 6.56396731 -2.15544109 4.31088218 0 0 Z " fill="#382B0F" transform="translate(406,391)"/>
<path d="M0 0 C2.41696872 -0.05411124 4.83271787 -0.09372278 7.25 -0.125 C7.93191406 -0.14175781 8.61382813 -0.15851563 9.31640625 -0.17578125 C13.38537077 -0.21528576 15.24899321 0.12449661 19 2 C16.03 1.67 13.06 1.34 10 1 C10 2.98 10 4.96 10 7 C8.51719804 6.21516341 7.0388502 5.42190666 5.5625 4.625 C4.73878906 4.18414062 3.91507813 3.74328125 3.06640625 3.2890625 C1 2 1 2 0 0 Z " fill="#E6C559" transform="translate(586,153)"/>
<path d="M0 0 C0.99 0.33 1.98 0.66 3 1 C2.67 1.598125 2.34 2.19625 2 2.8125 C0.79212012 5.05386471 0.79212012 5.05386471 1 8 C0.67 8.66 0.34 9.32 0 10 C-1.9375 9.25 -1.9375 9.25 -4 8 C-4.75 5.875 -4.75 5.875 -5 4 C-2.6875 1.9375 -2.6875 1.9375 0 0 Z " fill="#18120A" transform="translate(407,472)"/>
<path d="M0 0 C0.33 0 0.66 0 1 0 C1.3925703 3.45657707 1.76105763 6.91530096 2.125 10.375 C2.23714844 11.35984375 2.34929687 12.3446875 2.46484375 13.359375 C2.56152344 14.30039062 2.65820312 15.24140625 2.7578125 16.2109375 C2.8520752 17.08024902 2.94633789 17.94956055 3.04345703 18.84521484 C3 21 3 21 1 23 C-2.18181818 4.36363636 -2.18181818 4.36363636 0 0 Z " fill="#EACA54" transform="translate(378,432)"/>
<path d="M0 0 C0.66 0.33 1.32 0.66 2 1 C2.05397335 3.4377963 2.09365616 5.87439685 2.125 8.3125 C2.14175781 9.00279297 2.15851563 9.69308594 2.17578125 10.40429688 C2.21217794 14.17135396 2.14378864 15.78431704 0 19 C-1.19825457 15.40523628 -1.14608744 12.11450601 -1.125 8.375 C-1.12886719 7.68148438 -1.13273437 6.98796875 -1.13671875 6.2734375 C-1.12666646 1.12666646 -1.12666646 1.12666646 0 0 Z " fill="#E4C24D" transform="translate(268,360)"/>
<path d="M0 0 C3.90122084 5.85183126 2.20445261 13.53720097 1 20.1875 C0.67651719 21.79368202 0.34689431 23.3987111 0 25 C-0.33 25 -0.66 25 -1 25 C-2.02906485 19.13433034 -1.69089718 15.76894333 0 10 C0.17171204 6.65897428 0.12104726 3.34224926 0 0 Z " fill="#D5B84C" transform="translate(236,414)"/>
<path d="M0 0 C1.32 0.33 2.64 0.66 4 1 C4 1.66 4 2.32 4 3 C4.99 3.33 5.98 3.66 7 4 C6.67 4.99 6.34 5.98 6 7 C3.69 6.67 1.38 6.34 -1 6 C-1.33 5.01 -1.66 4.02 -2 3 C-1.34 2.01 -0.68 1.02 0 0 Z " fill="#140F09" transform="translate(258,395)"/>
<path d="M0 0 C0.33 0.66 0.66 1.32 1 2 C1.66 2.33 2.32 2.66 3 3 C3 3.66 3 4.32 3 5 C4.32 5 5.64 5 7 5 C6.34 7.64 5.68 10.28 5 13 C2.0487355 11.52436775 1.93076085 9.49920648 0.875 6.4375 C0.52179687 5.42558594 0.16859375 4.41367187 -0.1953125 3.37109375 C-0.46085938 2.58863281 -0.72640625 1.80617188 -1 1 C-0.67 0.67 -0.34 0.34 0 0 Z " fill="#E5C353" transform="translate(518,451)"/>
<path d="M0 0 C2.25 0 2.25 0 5 1 C6.76178014 3.48947194 8.08336933 6.0894 9 9 C8.67 9.66 8.34 10.32 8 11 C5.00675737 9.9024777 4.15389099 9.32317108 2.75 6.375 C2.5025 5.59125 2.255 4.8075 2 4 C2.66 4 3.32 4 4 4 C4 3.34 4 2.68 4 2 C2.68 1.67 1.36 1.34 0 1 C0 0.67 0 0.34 0 0 Z " fill="#E2C155" transform="translate(480,402)"/>
<path d="M0 0 C0.99 0.33 1.98 0.66 3 1 C-0.47712418 6.83660131 -0.47712418 6.83660131 -3 7.625 C-3.66 7.74875 -4.32 7.8725 -5 8 C-7.22977996 9.97901574 -7.22977996 9.97901574 -9 12 C-9.66 11.67 -10.32 11.34 -11 11 C-7.65295116 6.76696765 -4.40026234 3.15670994 0 0 Z " fill="#150D05" transform="translate(102,132)"/>
<path d="M0 0 C0 0.99 0 1.98 0 3 C-2.98241547 3.77321882 -5.97580475 4.41196203 -9 5 C-9 5.66 -9 6.32 -9 7 C-9.66 7 -10.32 7 -11 7 C-11 5.35 -11 3.7 -11 2 C-7.17010894 0.19769832 -4.21878192 -0.19622241 0 0 Z " fill="#ECC855" transform="translate(342,449)"/>
<path d="M0 0 C0.66 0.33 1.32 0.66 2 1 C2 1.99 2 2.98 2 4 C2.99 4 3.98 4 5 4 C5 4.66 5 5.32 5 6 C6.98 6 8.96 6 11 6 C10.34 6.66 9.68 7.32 9 8 C6.6171875 7.9765625 6.6171875 7.9765625 3.875 7.625 C2.96492188 7.51414062 2.05484375 7.40328125 1.1171875 7.2890625 C0.06917969 7.14597656 0.06917969 7.14597656 -1 7 C-1.04254356 5.00045254 -1.04080783 2.99958364 -1 1 C-0.67 0.67 -0.34 0.34 0 0 Z " fill="#160F08" transform="translate(475,395)"/>
<path d="M0 0 C2.34718181 3.52077271 2.06639389 3.93769777 1.8125 8 C1.4103125 9.485 1.4103125 9.485 1 11 C-1.55078125 12.1875 -1.55078125 12.1875 -4 13 C-3.52511102 11.01980257 -3.04497141 9.04086365 -2.5625 7.0625 C-2.29566406 5.96035156 -2.02882813 4.85820312 -1.75390625 3.72265625 C-1 1 -1 1 0 0 Z " fill="#E9C657" transform="translate(389,205)"/>
<path d="M0 0 C1.5625 1.75 1.5625 1.75 3 4 C2.72117131 7.06711564 1.75752863 8.36370706 0 11 C-0.33 10.34 -0.66 9.68 -1 9 C-1.99 9.99 -2.98 10.98 -4 12 C-2.66666667 8 -1.33333333 4 0 0 Z " fill="#F0CD5E" transform="translate(532,466)"/>
<path d="M0 0 C0.33 0 0.66 0 1 0 C1.10477512 5.78591511 0.99250545 11.29309366 0 17 C-1.90608098 13.78817851 -2.22266247 11.46117397 -2.125 7.75 C-2.09792969 6.41195312 -2.09792969 6.41195312 -2.0703125 5.046875 C-2.04710937 4.37140625 -2.02390625 3.6959375 -2 3 C-1.34 3 -0.68 3 0 3 C0 2.01 0 1.02 0 0 Z " fill="#D8B84A" transform="translate(167,205)"/>
<path d="M0 0 C0.33 0.66 0.66 1.32 1 2 C1.66 2.33 2.32 2.66 3 3 C2.34 3.66 1.68 4.32 1 5 C1.66 5.66 2.32 6.32 3 7 C0.36 7.33 -2.28 7.66 -5 8 C-3.8141763 4.62496331 -2.72426311 2.35277269 0 0 Z " fill="#E8C456" transform="translate(337,168)"/>
<path d="M0 0 C3.3 0.66 6.6 1.32 10 2 C10 2.66 10 3.32 10 4 C8.9275 3.938125 7.855 3.87625 6.75 3.8125 C2.89133813 4.00543309 1.71182212 4.39665076 -1 7 C-0.67 4.69 -0.34 2.38 0 0 Z " fill="#E4C454" transform="translate(551,402)"/>
<path d="M0 0 C-2.64 0 -5.28 0 -8 0 C-8.33 0.99 -8.66 1.98 -9 3 C-11.97 2.67 -14.94 2.34 -18 2 C-12.68641448 -2.36473096 -6.05839957 -4.03893305 0 0 Z " fill="#E2C257" transform="translate(350,404)"/>
<path d="M0 0 C0.66 0 1.32 0 2 0 C2.33 0.66 2.66 1.32 3 2 C3.99 2 4.98 2 6 2 C6.99 2 7.98 2 9 2 C9 3.65 9 5.3 9 7 C8.34 6.34 7.68 5.68 7 5 C6.01 6.32 5.02 7.64 4 9 C0 2.25 0 2.25 0 0 Z " fill="#E4C551" transform="translate(465,394)"/>
<path d="M0 0 C-0.33 0.66 -0.66 1.32 -1 2 C-5.68395246 3.14242743 -10.21355271 3.08252495 -15 3 C-15 2.34 -15 1.68 -15 1 C-13.25215171 0.63536268 -11.50159498 0.2836922 -9.75 -0.0625 C-8.28820312 -0.35833984 -8.28820312 -0.35833984 -6.796875 -0.66015625 C-4.131881 -0.98397535 -2.51128277 -0.85503199 0 0 Z " fill="#F0CB54" transform="translate(153,244)"/>
<path d="M0 0 C5.67276511 -0.29341888 8.99067246 -0.00559652 14 3 C14 3.33 14 3.66 14 4 C10.15393275 4.08944342 6.75316408 3.81149494 3 3 C2.01 3 1.02 3 0 3 C0 2.01 0 1.02 0 0 Z " fill="#E4C351" transform="translate(429,162)"/>
<path d="M0 0 C1.32 0.33 2.64 0.66 4 1 C3.34 1 2.68 1 2 1 C2 1.66 2 2.32 2 3 C7.445 2.505 7.445 2.505 13 2 C10.40207746 4.59792254 8.66539995 4.54280898 5.0625 5.0625 C1.88446425 5.52974462 -0.94922223 5.98307408 -4 7 C-4 5 -4 5 -2 2.9375 C-1.34 2.298125 -0.68 1.65875 0 1 C0 0.67 0 0.34 0 0 Z " fill="#191007" transform="translate(120,127)"/>
<path d="M0 0 C0.66 0 1.32 0 2 0 C1.60824727 2.43931365 1.2627764 3.73170598 -0.48828125 5.51953125 C-1.09027344 5.94621094 -1.69226563 6.37289063 -2.3125 6.8125 C-3.20388672 7.47185547 -3.20388672 7.47185547 -4.11328125 8.14453125 C-6.48204164 9.21856546 -7.60093031 8.86324141 -10 8 C-9.34 8 -8.68 8 -8 8 C-7.34 6.68 -6.68 5.36 -6 4 C-5.34 4 -4.68 4 -4 4 C-3.67 3.34 -3.34 2.68 -3 2 C-2.01 2.33 -1.02 2.66 0 3 C0 2.01 0 1.02 0 0 Z " fill="#E5C557" transform="translate(507,505)"/>
<path d="M0 0 C0.33 0.99 0.66 1.98 1 3 C1.99 3 2.98 3 4 3 C3.50168276 6.68754757 2.89932357 8.60490662 0 11 C-0.66 10.67 -1.32 10.34 -2 10 C-1.34 6.7 -0.68 3.4 0 0 Z " fill="#D5B750" transform="translate(427,397)"/>
<path d="M0 0 C1.9078584 3.1749094 2.1609041 5.10585211 1.625 8.75 C1.51414062 9.54921875 1.40328125 10.3484375 1.2890625 11.171875 C1.19367188 11.77515625 1.09828125 12.3784375 1 13 C-0.32 12.67 -1.64 12.34 -3 12 C-2.68950274 10.56206608 -2.3765224 9.1246682 -2.0625 7.6875 C-1.88847656 6.88699219 -1.71445312 6.08648437 -1.53515625 5.26171875 C-1 3 -1 3 0 0 Z " fill="#E2BE4F" transform="translate(483,219)"/>
<path d="M0 0 C0.33 0 0.66 0 1 0 C1.20496094 0.69867188 1.40992188 1.39734375 1.62109375 2.1171875 C1.89050781 3.02726562 2.15992188 3.93734375 2.4375 4.875 C2.83775391 6.23238281 2.83775391 6.23238281 3.24609375 7.6171875 C3.92613826 9.98275381 3.92613826 9.98275381 5 12 C-0.75 11.25 -0.75 11.25 -3 9 C-2.01 8.67 -1.02 8.34 0 8 C0 5.36 0 2.72 0 0 Z " fill="#E4C257" transform="translate(484,507)"/>
<path d="M0 0 C2.97 0.33 5.94 0.66 9 1 C8.34 2.65 7.68 4.3 7 6 C6.34 6 5.68 6 5 6 C5 5.34 5 4.68 5 4 C3.35 4.33 1.7 4.66 0 5 C0 3.35 0 1.7 0 0 Z " fill="#F1CC51" transform="translate(406,402)"/>
<path d="M0 0 C-1 3 -1 3 -2.625 3.875 C-6.26484677 4.06657088 -8.73448156 2.56996079 -12 1 C-12 0.67 -12 0.34 -12 0 C-7.74433453 -1.16063604 -4.3164922 -0.76173392 0 0 Z " fill="#EDC954" transform="translate(223,363)"/>
<path d="M0 0 C0.78375 0.185625 1.5675 0.37125 2.375 0.5625 C4.97089775 1.25962266 4.97089775 1.25962266 7 0 C9.625 0.9375 9.625 0.9375 12 2 C8.73454239 3.88391785 5.71888239 4.49287967 2 5 C2 4.34 2 3.68 2 3 C1.01 2.67 0.02 2.34 -1 2 C-0.67 1.34 -0.34 0.68 0 0 Z " fill="#F4CE51" transform="translate(409,242)"/>
<path d="M0 0 C1.4606285 2.64738916 2 3.89448334 2 7 C2.33 6.34 2.66 5.68 3 5 C3.66 5 4.32 5 5 5 C5.33 6.98 5.66 8.96 6 11 C5.01 11 4.02 11 3 11 C1.35 8.03 -0.3 5.06 -2 2 C-1.34 2 -0.68 2 0 2 C0 1.34 0 0.68 0 0 Z " fill="#E9C658" transform="translate(605,204)"/>
<path d="M0 0 C2.0839403 0.11443603 4.16716493 0.24195547 6.25 0.375 C7.41015625 0.44460937 8.5703125 0.51421875 9.765625 0.5859375 C12.70694334 0.96248308 14.49949011 1.4774123 17 3 C17 3.99 17 4.98 17 6 C16.21625 5.71125 15.4325 5.4225 14.625 5.125 C10.79517077 3.93643231 7.02331674 3.22363449 3.07421875 2.5625 C2.38972656 2.376875 1.70523437 2.19125 1 2 C0.67 1.34 0.34 0.68 0 0 Z " fill="#E4C556" transform="translate(437,153)"/>
<path d="M0 0 C0.66 0.33 1.32 0.66 2 1 C1.34 2.65 0.68 4.3 0 6 C0.99 6 1.98 6 3 6 C2.34 7.65 1.68 9.3 1 11 C0.01 10.67 -0.98 10.34 -2 10 C-3.39195915 5.82412255 -1.82323219 3.86525224 0 0 Z " fill="#ECC854" transform="translate(388,476)"/>
<path d="M0 0 C2.475 0.495 2.475 0.495 5 1 C5.125 3.875 5.125 3.875 5 7 C4.34 7.66 3.68 8.32 3 9 C2.67 8.34 2.34 7.68 2 7 C1.34 7 0.68 7 0 7 C0 4.69 0 2.38 0 0 Z " fill="#140D06" transform="translate(528,234)"/>
<path d="M0 0 C2.80045623 3.14591933 3.35261589 5.067064 3.1875 9.25 C3.16042969 10.14203125 3.13335937 11.0340625 3.10546875 11.953125 C3.07066406 12.62859375 3.03585937 13.3040625 3 14 C2.34 14 1.68 14 1 14 C0.06380187 10.84493858 -0.1057123 8.03413498 -0.0625 4.75 C-0.05347656 3.85796875 -0.04445313 2.9659375 -0.03515625 2.046875 C-0.02355469 1.37140625 -0.01195312 0.6959375 0 0 Z " fill="#ECC855" transform="translate(412,218)"/>
<path d="M0 0 C2.56919192 2.25886817 3.68000131 4.20020805 4.75 7.4375 C5.01296875 8.19933594 5.2759375 8.96117187 5.546875 9.74609375 C6.04123949 12.20513089 5.79335904 13.64672554 5 16 C5 15.34 5 14.68 5 14 C4.34 14 3.68 14 3 14 C2.01879536 10.94736336 2.01879536 9.05263664 3 6 C2.34 6 1.68 6 1 6 C0.67 4.02 0.34 2.04 0 0 Z " fill="#E4C356" transform="translate(273,178)"/>
<path d="M0 0 C0.66 0 1.32 0 2 0 C2.66 1.65 3.32 3.3 4 5 C3.05125 5.45375 2.1025 5.9075 1.125 6.375 C-2.00313679 7.80238254 -2.00313679 7.80238254 -4 10 C-4.33 8.68 -4.66 7.36 -5 6 C-3.68 5.67 -2.36 5.34 -1 5 C-0.67 3.35 -0.34 1.7 0 0 Z " fill="#F2CD58" transform="translate(274,355)"/>
<path d="M0 0 C0.66 0.33 1.32 0.66 2 1 C1.67 2.65 1.34 4.3 1 6 C-2.40562852 6.77842938 -5.50765756 7.09978121 -9 7 C-8.01 6.34 -7.02 5.68 -6 5 C-3.96864317 3.36898357 -1.99068127 1.68101974 0 0 Z " fill="#EDC958" transform="translate(606,236)"/>
<path d="M0 0 C2.37948772 0.17625835 3.70225849 0.69719773 5.37890625 2.40234375 C6.62115486 3.90649092 7.81376056 5.45129851 9 7 C6.125 7.1875 6.125 7.1875 3 7 C1.25372522 4.38058783 0.61277612 2.96175123 0 0 Z " fill="#EFCB57" transform="translate(360,168)"/>
<path d="M0 0 C2.86453858 3.41016497 4.34703566 6.90694544 6 11 C4.35 10.67 2.7 10.34 1 10 C0.22157062 6.59437148 -0.09978121 3.49234244 0 0 Z " fill="#E9C759" transform="translate(310,467)"/>
<path d="M0 0 C1.98 0 3.96 0 6 0 C6 1.32 6 2.64 6 4 C2.7 3.67 -0.6 3.34 -4 3 C-2.68 2.67 -1.36 2.34 0 2 C0 1.34 0 0.68 0 0 Z " fill="#EAC753" transform="translate(578,234)"/>
<path d="M0 0 C0.99 0.33 1.98 0.66 3 1 C2.04882866 2.1725131 1.08882991 3.33787015 0.125 4.5 C-0.40867188 5.1496875 -0.94234375 5.799375 -1.4921875 6.46875 C-1.98976562 6.9740625 -2.48734375 7.479375 -3 8 C-3.66 8 -4.32 8 -5 8 C-5 6.35 -5 4.7 -5 3 C-4.01 3 -3.02 3 -2 3 C-1.34 2.01 -0.68 1.02 0 0 Z " fill="#E6C753" transform="translate(163,222)"/>
<path d="M0 0 C1.98 0.66 3.96 1.32 6 2 C5.91245449 3.75091019 5.80426627 5.50079551 5.6875 7.25 C5.62949219 8.22453125 5.57148437 9.1990625 5.51171875 10.203125 C4.95363476 13.25341611 4.03630224 14.70711276 2 17 C2 13 2 13 3 12 C3.23820921 9.96729438 3.23820921 9.96729438 3.25 7.625 C3.27578125 6.83351562 3.3015625 6.04203125 3.328125 5.2265625 C2.93070018 2.52975122 2.07493465 1.69270985 0 0 Z " fill="#2B1E0C" transform="translate(585,165)"/>
<path d="M0 0 C0.66 0 1.32 0 2 0 C3.54571278 2.31856917 4.79618552 4.50638429 6 7 C5.34 7 4.68 7 4 7 C4 8.32 4 9.64 4 11 C3.34 11 2.68 11 2 11 C1.34 7.37 0.68 3.74 0 0 Z " fill="#EECB57" transform="translate(464,170)"/>
<path d="M0 0 C4.455 0.99 4.455 0.99 9 2 C7.68 2.33 6.36 2.66 5 3 C4.67 3.99 4.34 4.98 4 6 C2.35 5.01 0.7 4.02 -1 3 C-0.67 2.01 -0.34 1.02 0 0 Z " fill="#EFCB5A" transform="translate(303,162)"/>
<path d="M0 0 C4.29 0 8.58 0 13 0 C13 0.33 13 0.66 13 1 C9.7 1 6.4 1 3 1 C3 3.31 3 5.62 3 8 C1 5 1 5 0 0 Z " fill="#C3A746" transform="translate(497,403)"/>
<path d="M0 0 C0.99 0.33 1.98 0.66 3 1 C3 1.99 3 2.98 3 4 C4.32 4 5.64 4 7 4 C7 3.34 7 2.68 7 2 C7.66 2 8.32 2 9 2 C8.67 2.99 8.34 3.98 8 5 C5.36 5.33 2.72 5.66 0 6 C0 4.02 0 2.04 0 0 Z " fill="#EDCA57" transform="translate(352,226)"/>
<path d="M0 0 C0.66 0 1.32 0 2 0 C1.01 3.3 0.02 6.6 -1 10 C-1.33 9.34 -1.66 8.68 -2 8 C-2.66 8 -3.32 8 -4 8 C-2.99059621 4.97178863 -1.78305524 2.63892176 0 0 Z " fill="#F3CE55" transform="translate(533,424)"/>
<path d="M0 0 C2.21399303 3.79541663 3.00980198 7.75629421 4 12 C1 11 1 11 -0.25 8.8125 C-1.12860506 5.51773102 -0.76557916 3.29199038 0 0 Z " fill="#22180D" transform="translate(90,197)"/>
<path d="M0 0 C0.66 0 1.32 0 2 0 C1.50168276 3.68754757 0.89932357 5.60490662 -2 8 C-2.99 7.67 -3.98 7.34 -5 7 C-4.34 6.67 -3.68 6.34 -3 6 C-2.29788106 4.34795544 -1.63028587 2.68076231 -1 1 C-0.67 0.67 -0.34 0.34 0 0 Z " fill="#F4D159" transform="translate(421,173)"/>
<path d="M0 0 C0.66 0 1.32 0 2 0 C1.649375 0.556875 1.29875 1.11375 0.9375 1.6875 C-0.21845993 4.53886783 0.19032562 6.08517222 1 9 C-0.32 9.33 -1.64 9.66 -3 10 C-2.25 2.25 -2.25 2.25 0 0 Z " fill="#20190C" transform="translate(171,119)"/>
<path d="M0 0 C1.65 0.33 3.3 0.66 5 1 C4.67 1.99 4.34 2.98 4 4 C0.37 3.67 -3.26 3.34 -7 3 C-7 2.67 -7 2.34 -7 2 C-4.69 2 -2.38 2 0 2 C0 1.34 0 0.68 0 0 Z " fill="#CEAC4B" transform="translate(347,435)"/>
<path d="M0 0 C4.75207471 -0.43200679 7.78210698 1.01510917 12 3 C12 3.33 12 3.66 12 4 C7.45194365 4.17835515 4.1205746 3.99785435 0 2 C0 1.34 0 0.68 0 0 Z " fill="#D5B64D" transform="translate(241,233)"/>
<path d="M0 0 C0.66 0.33 1.32 0.66 2 1 C1.67 1.66 1.34 2.32 1 3 C1.99 3.66 2.98 4.32 4 5 C4.6875 7.625 4.6875 7.625 5 10 C2.06799526 7.14723863 -0.64315404 4.34920216 -3 1 C-2.01 0.67 -1.02 0.34 0 0 Z " fill="#DBBA52" transform="translate(101,214)"/>
<path d="M0 0 C0.33 0 0.66 0 1 0 C1.19294408 4.82360189 0.75747614 8.49646738 -1 13 C-1.66 13 -2.32 13 -3 13 C-2.68991116 11.39536551 -2.37683713 9.79130769 -2.0625 8.1875 C-1.88847656 7.29417969 -1.71445312 6.40085938 -1.53515625 5.48046875 C-1 3 -1 3 0 0 Z " fill="#EBC953" transform="translate(278,199)"/>
<path d="M0 0 C0.99 0 1.98 0 3 0 C2.6875 3.375 2.6875 3.375 2 7 C1.01 7.66 0.02 8.32 -1 9 C-0.67 6.03 -0.34 3.06 0 0 Z " fill="#E3C251" transform="translate(452,184)"/>
<path d="M0 0 C0.66 0.33 1.32 0.66 2 1 C2 1.66 2 2.32 2 3 C1.34 3 0.68 3 0 3 C0.33 4.98 0.66 6.96 1 9 C0.34 9 -0.32 9 -1 9 C-3 6 -3 6 -2.75 3.9375 C-2 2 -2 2 0 0 Z " fill="#E7C555" transform="translate(365,475)"/>
<path d="M0 0 C2.6855594 2.6855594 3.06049974 5.37621328 4 9 C3.34 9 2.68 9 2 9 C1.67 9.99 1.34 10.98 1 12 C-0.3271261 8.0186217 -0.06915913 4.14954773 0 0 Z " fill="#E6C553" transform="translate(322,459)"/>
<path d="M0 0 C2.35953094 2.35953094 2.49141413 3.77895617 3 7 C0.03 6.505 0.03 6.505 -3 6 C-2.01 4.02 -1.02 2.04 0 0 Z " fill="#E6C251" transform="translate(508,455)"/>
<path d="M0 0 C0.33 0 0.66 0 1 0 C0.67 3.63 0.34 7.26 0 11 C-2.31 10.67 -4.62 10.34 -7 10 C-6.401875 9.835 -5.80375 9.67 -5.1875 9.5 C-1.81472202 7.18723796 -1.1668452 3.80108663 0 0 Z " fill="#E1C256" transform="translate(468,410)"/>
<path d="M0 0 C0.33 0 0.66 0 1 0 C0.67 2.97 0.34 5.94 0 9 C0.66 9 1.32 9 2 9 C2 9.66 2 10.32 2 11 C0.02 11 -1.96 11 -4 11 C-2.68 7.37 -1.36 3.74 0 0 Z " fill="#DEBF55" transform="translate(293,370)"/>
<path d="M0 0 C0.66 0.33 1.32 0.66 2 1 C0.5023304 3.49824035 -1.01558218 5.86004673 -3 8 C-5.8125 8.4375 -5.8125 8.4375 -8 8 C-5.33333333 5.33333333 -2.66666667 2.66666667 0 0 Z " fill="#1A1106" transform="translate(368,223)"/>
<path d="M0 0 C1.32 0 2.64 0 4 0 C5.26237731 2.52475462 5.09856404 4.31200466 5.0625 7.125 C5.05347656 8.03507813 5.04445312 8.94515625 5.03515625 9.8828125 C5.02355469 10.58148438 5.01195312 11.28015625 5 12 C4.34 11.67 3.68 11.34 3 11 C3.0928125 9.329375 3.0928125 9.329375 3.1875 7.625 C3.125625 6.42875 3.06375 5.2325 3 4 C2.01 3.34 1.02 2.68 0 2 C0 1.34 0 0.68 0 0 Z " fill="#D0B14E" transform="translate(193,181)"/>
<path d="M0 0 C0.99 0.33 1.98 0.66 3 1 C1.70700306 3.88437779 0.34058637 5.87219421 -2 8 C-2 5.69 -2 3.38 -2 1 C-1.34 0.67 -0.68 0.34 0 0 Z " fill="#EDC857" transform="translate(221,160)"/>
<path d="M0 0 C1.80411967 2.75924185 2.0127245 3.88972103 1.625 7.25 C1.41875 8.1575 1.2125 9.065 1 10 C0.67 9.01 0.34 8.02 0 7 C-0.66 7 -1.32 7 -2 7 C-2.33 5.35 -2.66 3.7 -3 2 C-2.34 2 -1.68 2 -1 2 C-0.67 1.34 -0.34 0.68 0 0 Z " fill="#EBC751" transform="translate(309,457)"/>
<path d="M0 0 C0.33 0 0.66 0 1 0 C1.66 3.63 2.32 7.26 3 11 C2.01 11 1.02 11 0 11 C-0.19406478 9.35492782 -0.38007935 7.70890406 -0.5625 6.0625 C-0.66691406 5.14597656 -0.77132812 4.22945312 -0.87890625 3.28515625 C-0.91886719 2.53105469 -0.95882812 1.77695313 -1 1 C-0.67 0.67 -0.34 0.34 0 0 Z " fill="#DCB950" transform="translate(212,208)"/>
<path d="M0 0 C0.66 0.33 1.32 0.66 2 1 C1.67 1.66 1.34 2.32 1 3 C0.34 3 -0.32 3 -1 3 C-1.33 3.99 -1.66 4.98 -2 6 C-3.65 6 -5.3 6 -7 6 C-2.25 1.125 -2.25 1.125 0 0 Z " fill="#E2C453" transform="translate(423,164)"/>
<path d="M0 0 C2.31 0.33 4.62 0.66 7 1 C7.66 3.31 8.32 5.62 9 8 C8.01 8.495 8.01 8.495 7 9 C6.67 7.35 6.34 5.7 6 4 C5.01 3.67 4.02 3.34 3 3 C3 2.34 3 1.68 3 1 C2.01 0.67 1.02 0.34 0 0 Z " fill="#3F3416" transform="translate(322,153)"/>
<path d="M0 0 C1.98 0 3.96 0 6 0 C4.37660195 1.70884005 2.70680947 3.37446717 1 5 C0.34 5 -0.32 5 -1 5 C-0.67 3.35 -0.34 1.7 0 0 Z " fill="#EAC956" transform="translate(107,124)"/>
<path d="M0 0 C0.99 0.66 1.98 1.32 3 2 C2.34 3.32 1.68 4.64 1 6 C-0.65 5.67 -2.3 5.34 -4 5 C-2.68 3.35 -1.36 1.7 0 0 Z " fill="#E1C04F" transform="translate(235,462)"/>
<path d="M0 0 C2.09749995 2.35968744 2.96905704 3.54616994 3.1875 6.75 C3.125625 7.4925 3.06375 8.235 3 9 C2.01 8.67 1.02 8.34 0 8 C-0.99 8.495 -0.99 8.495 -2 9 C-1.34 6.03 -0.68 3.06 0 0 Z " fill="#DFC050" transform="translate(539,442)"/>
<path d="M0 0 C0.99 0.495 0.99 0.495 2 1 C2 1.66 2 2.32 2 3 C5.465 2.505 5.465 2.505 9 2 C8.67 2.99 8.34 3.98 8 5 C5.69 5 3.38 5 1 5 C0.67 3.35 0.34 1.7 0 0 Z " fill="#CCB053" transform="translate(322,416)"/>
<path d="M0 0 C2.475 0.99 2.475 0.99 5 2 C5 2.66 5 3.32 5 4 C4.01 4.495 4.01 4.495 3 5 C1.86649466 7.01669827 1.86649466 7.01669827 1 9 C1 7.35 1 5.7 1 4 C0.34 4 -0.32 4 -1 4 C-0.67 2.68 -0.34 1.36 0 0 Z " fill="#F3CE5A" transform="translate(300,264)"/>
<path d="M0 0 C0.99 0.33 1.98 0.66 3 1 C3.33 2.65 3.66 4.3 4 6 C3.01 6.33 2.02 6.66 1 7 C0.26676204 9.01508358 0.26676204 9.01508358 0 11 C-0.66 10.34 -1.32 9.68 -2 9 C-1.7578125 6.8359375 -1.7578125 6.8359375 -1.125 4.375 C-0.92132812 3.55773437 -0.71765625 2.74046875 -0.5078125 1.8984375 C-0.34023438 1.27195313 -0.17265625 0.64546875 0 0 Z " fill="#E2C04E" transform="translate(612,221)"/>
<path d="M0 0 C0.99 0.33 1.98 0.66 3 1 C2.67 3.64 2.34 6.28 2 9 C1.34 9 0.68 9 0 9 C-0.66 7.35 -1.32 5.7 -2 4 C-1.01 4 -0.02 4 1 4 C1.33 3.34 1.66 2.68 2 2 C1.34 2 0.68 2 0 2 C0 1.34 0 0.68 0 0 Z " fill="#140C07" transform="translate(480,217)"/>
<path d="M0 0 C2 2 2 2 2 6 C0.68 6 -0.64 6 -2 6 C-2.33 4.35 -2.66 2.7 -3 1 C-2.01 0.67 -1.02 0.34 0 0 Z " fill="#EECA51" transform="translate(333,213)"/>
<path d="M0 0 C3.24208567 0.35049575 4.61527704 0.56221181 6.8125 3.0625 C7.204375 3.701875 7.59625 4.34125 8 5 C5.125 4.75 5.125 4.75 2 4 C0.625 1.9375 0.625 1.9375 0 0 Z " fill="#F2CE57" transform="translate(586,208)"/>
<path d="M0 0 C0 3.96 0 7.92 0 12 C-0.33 12 -0.66 12 -1 12 C-1.33 8.7 -1.66 5.4 -2 2 C-3.32 1.67 -4.64 1.34 -6 1 C-3 0 -3 0 0 0 Z " fill="#BAA147" transform="translate(458,202)"/>
<path d="M0 0 C0.33 1.32 0.66 2.64 1 4 C-0.8125 5.0625 -0.8125 5.0625 -3 6 C-3.99 5.67 -4.98 5.34 -6 5 C-5.34 5 -4.68 5 -4 5 C-3.896875 4.360625 -3.79375 3.72125 -3.6875 3.0625 C-3.460625 2.381875 -3.23375 1.70125 -3 1 C-2.01 0.67 -1.02 0.34 0 0 Z " fill="#ECC954" transform="translate(424,188)"/>
<path d="M0 0 C0.66 0.33 1.32 0.66 2 1 C1.67 1.66 1.34 2.32 1 3 C2.98 3 4.96 3 7 3 C6.01 4.485 6.01 4.485 5 6 C1.34683329 4.75023244 0.21934164 4.32901247 -2 1 C-1.34 0.67 -0.68 0.34 0 0 Z " fill="#EDCA58" transform="translate(562,185)"/>
<path d="M0 0 C0.33 0 0.66 0 1 0 C1.33 2.64 1.66 5.28 2 8 C1.01 8.66 0.02 9.32 -1 10 C-1.33 7.69 -1.66 5.38 -2 3 C-1.34 3 -0.68 3 0 3 C0 2.01 0 1.02 0 0 Z " fill="#E7C651" transform="translate(290,185)"/>
<path d="M0 0 C1.30232558 5.20930233 1.30232558 5.20930233 0 8 C-1.65 8.66 -3.3 9.32 -5 10 C-3.35 6.7 -1.7 3.4 0 0 Z " fill="#1D1409" transform="translate(221,165)"/>
<path d="M0 0 C4.29 0 8.58 0 13 0 C9 3 9 3 6 3 C6 2.34 6 1.68 6 1 C4.02 1 2.04 1 0 1 C0 0.67 0 0.34 0 0 Z " fill="#D4B34B" transform="translate(335,485)"/>
<path d="M0 0 C0 3.51716303 -0.82445585 4.37121748 -3 7 C-4.32 6.67 -5.64 6.34 -7 6 C-4.69 4.02 -2.38 2.04 0 0 Z " fill="#1C1107" transform="translate(362,465)"/>
<path d="M0 0 C1.32 0 2.64 0 4 0 C4 0.66 4 1.32 4 2 C4.99 2.33 5.98 2.66 7 3 C3.04 3 -0.92 3 -5 3 C-5 2.67 -5 2.34 -5 2 C-3.35 2 -1.7 2 0 2 C0 1.34 0 0.68 0 0 Z " fill="#E7C355" transform="translate(428,233)"/>
<path d="M0 0 C2 1 2 1 5 3 C4.34 4.32 3.68 5.64 3 7 C3 6.01 3 5.02 3 4 C1.35 4.66 -0.3 5.32 -2 6 C-2.33 5.34 -2.66 4.68 -3 4 C-2.34 4 -1.68 4 -1 4 C-0.67 2.68 -0.34 1.36 0 0 Z " fill="#E9C85A" transform="translate(554,209)"/>
<path d="M0 0 C0.33 0 0.66 0 1 0 C1.19622241 4.21878192 0.80230168 7.17010894 -1 11 C-1.66 11 -2.32 11 -3 11 C-2.67 9.02 -2.34 7.04 -2 5 C-1.34 5 -0.68 5 0 5 C0 3.35 0 1.7 0 0 Z " fill="#DDC051" transform="translate(518,477)"/>
<path d="M0 0 C-1.2491742 3.45925163 -2.67527795 6.14693203 -5 9 C-5.33 8.01 -5.66 7.02 -6 6 C-5.34 6 -4.68 6 -4 6 C-4 4.35 -4 2.7 -4 1 C-2 0 -2 0 0 0 Z " fill="#E4C356" transform="translate(318,445)"/>
<path d="M0 0 C3.465 1.485 3.465 1.485 7 3 C7 4.98 7 6.96 7 9 C6.67 9 6.34 9 6 9 C6 7.35 6 5.7 6 4 C4.35 3.67 2.7 3.34 1 3 C0.67 2.01 0.34 1.02 0 0 Z " fill="#2E210C" transform="translate(287,361)"/>
<path d="M0 0 C2 1 4 2 6 3 C5.67 4.32 5.34 5.64 5 7 C2.5 5.1875 2.5 5.1875 0 3 C0 2.01 0 1.02 0 0 Z " fill="#E0C050" transform="translate(231,225)"/>
<path d="M0 0 C1.32 0 2.64 0 4 0 C4 3.3 4 6.6 4 10 C3.67 10 3.34 10 3 10 C3 7.69 3 5.38 3 3 C2.01 3 1.02 3 0 3 C0 2.01 0 1.02 0 0 Z " fill="#BDA243" transform="translate(165,192)"/>
<path d="M0 0 C2.34058637 2.12780579 3.70700306 4.11562221 5 7 C4.01 7 3.02 7 2 7 C-0.1875 4 -0.1875 4 -2 1 C-1.34 0.67 -0.68 0.34 0 0 Z " fill="#EBC956" transform="translate(275,161)"/>
<path d="M0 0 C1.32 0 2.64 0 4 0 C3.67 2.97 3.34 5.94 3 9 C2.34 8.67 1.68 8.34 1 8 C0.40644386 5.35139573 0.25790731 2.70802678 0 0 Z " fill="#E6C55A" transform="translate(306,475)"/>
<path d="M0 0 C0 2.62113708 -0.31292445 4.50935112 -1 7 C-2.98 7 -4.96 7 -7 7 C-4.66666667 4.66666667 -2.33333333 2.33333333 0 0 Z " fill="#D9B84E" transform="translate(230,467)"/>
<path d="M0 0 C2.97 0.495 2.97 0.495 6 1 C1.25 4.875 1.25 4.875 -1 6 C-0.67 4.02 -0.34 2.04 0 0 Z " fill="#160F04" transform="translate(325,450)"/>
<path d="M0 0 C2.00720923 0.28674418 4.0085944 0.61866701 6 1 C4.35 2.32 2.7 3.64 1 5 C0.34 3.68 -0.32 2.36 -1 1 C-0.67 0.67 -0.34 0.34 0 0 Z " fill="#EAC856" transform="translate(431,398)"/>
<path d="M0 0 C1.98 1.65 3.96 3.3 6 5 C5.01 5.66 4.02 6.32 3 7 C1.68 5.68 0.36 4.36 -1 3 C-0.67 2.01 -0.34 1.02 0 0 Z " fill="#E6C354" transform="translate(270,377)"/>
<path d="M0 0 C0.99 0 1.98 0 3 0 C3.33 0.99 3.66 1.98 4 3 C3.67 3.66 3.34 4.32 3 5 C3.99 5.33 4.98 5.66 6 6 C4.35 5.67 2.7 5.34 1 5 C0.67 3.35 0.34 1.7 0 0 Z " fill="#170F09" transform="translate(170,243)"/>
<path d="M0 0 C0.99 0.33 1.98 0.66 3 1 C1.52307692 5.67692308 1.52307692 5.67692308 -1.125 7.3125 C-2.053125 7.6528125 -2.053125 7.6528125 -3 8 C-1.125 2.25 -1.125 2.25 0 0 Z " fill="#DCBC4E" transform="translate(226,178)"/>
<path d="M0 0 C0.6875 1.8125 0.6875 1.8125 1 4 C-0.4375 5.75 -0.4375 5.75 -2 7 C-2.99 6.67 -3.98 6.34 -5 6 C-3.35 4.02 -1.7 2.04 0 0 Z " fill="#E4C353" transform="translate(232,170)"/>
<path d="M0 0 C2.125 0.375 2.125 0.375 4 1 C2.37660195 2.70884005 0.70680947 4.37446717 -1 6 C-1.66 6 -2.32 6 -3 6 C-2.42655063 3.13275314 -2.1385485 2.1385485 0 0 Z " fill="#E9C858" transform="translate(408,160)"/>
<path d="M0 0 C2.97 0.495 2.97 0.495 6 1 C5.67 2.32 5.34 3.64 5 5 C2.5 3.625 2.5 3.625 0 2 C0 1.34 0 0.68 0 0 Z " fill="#EBC854" transform="translate(264,154)"/>
<path d="M0 0 C0.66 0.99 1.32 1.98 2 3 C1.01 3.495 1.01 3.495 0 4 C-0.72159424 5.64363134 -1.39351421 7.31050386 -2 9 C-2.66 9 -3.32 9 -4 9 C-2.94124926 5.59687262 -1.99097846 2.98646769 0 0 Z " fill="#E0C155" transform="translate(99,150)"/>
<path d="M0 0 C0.99 0.33 1.98 0.66 3 1 C1.25 6.75 1.25 6.75 -1 9 C-1.09765625 2.84765625 -1.09765625 2.84765625 -1 1 C-0.67 0.67 -0.34 0.34 0 0 Z " fill="#E3C458" transform="translate(86,145)"/>
<path d="M0 0 C0.33 0 0.66 0 1 0 C1 1.98 1 3.96 1 6 C-0.98 6.99 -0.98 6.99 -3 8 C-3 7.01 -3 6.02 -3 5 C-2.34 5 -1.68 5 -1 5 C-0.67 3.35 -0.34 1.7 0 0 Z " fill="#241708" transform="translate(509,504)"/>
<path d="M0 0 C0 1.98 0 3.96 0 6 C-0.33 5.34 -0.66 4.68 -1 4 C-2.32 4.33 -3.64 4.66 -5 5 C-5.33 4.34 -5.66 3.68 -6 3 C-1.125 0 -1.125 0 0 0 Z " fill="#E7C551" transform="translate(361,479)"/>
<path d="M0 0 C3 3.75 3 3.75 3 6 C1.35 6.33 -0.3 6.66 -2 7 C-1.34 4.69 -0.68 2.38 0 0 Z " fill="#E4C14F" transform="translate(532,466)"/>
<path d="M0 0 C2.15377564 2.62198774 3.40072174 4.64404172 4 8 C2.68 7.67 1.36 7.34 0 7 C0 4.69 0 2.38 0 0 Z " fill="#E2C452" transform="translate(499,436)"/>
<path d="M0 0 C0.33 0.66 0.66 1.32 1 2 C3.52733235 2.65555119 3.52733235 2.65555119 6 3 C4.02 3.99 4.02 3.99 2 5 C0.68 4.01 -0.64 3.02 -2 2 C-1.34 2 -0.68 2 0 2 C0 1.34 0 0.68 0 0 Z " fill="#17100B" transform="translate(319,426)"/>
<path d="M0 0 C0.66 0.33 1.32 0.66 2 1 C0.515 3.475 0.515 3.475 -1 6 C-1.99 5.67 -2.98 5.34 -4 5 C-2.68 3.35 -1.36 1.7 0 0 Z " fill="#E3C356" transform="translate(443,406)"/>
<path d="M0 0 C2.50037734 2.17424117 3.43628586 3.73045798 4 7 C2.68 6.67 1.36 6.34 0 6 C0 4.02 0 2.04 0 0 Z " fill="#E9C954" transform="translate(225,385)"/>
<path d="M0 0 C2.64 0.33 5.28 0.66 8 1 C4.93882432 3.62386487 4.26826873 4 0 4 C0 2.68 0 1.36 0 0 Z " fill="#E5C154" transform="translate(458,243)"/>
<path d="M0 0 C0.33 0.99 0.66 1.98 1 3 C-1 5 -1 5 -4.125 5.125 C-5.548125 5.063125 -5.548125 5.063125 -7 5 C-2.25 1.125 -2.25 1.125 0 0 Z " fill="#120B05" transform="translate(559,242)"/>
<path d="M0 0 C1.65 0 3.3 0 5 0 C3.25 4.875 3.25 4.875 1 6 C0.67 4.02 0.34 2.04 0 0 Z " fill="#EECB5A" transform="translate(267,221)"/>
<path d="M0 0 C1.89213369 2.38573379 3.02391783 4.07175348 4 7 C2.68 7.33 1.36 7.66 0 8 C0 5.36 0 2.72 0 0 Z " fill="#EAC754" transform="translate(82,207)"/>
<path d="M0 0 C2.31 0 4.62 0 7 0 C7.33 0.66 7.66 1.32 8 2 C5.36 2.33 2.72 2.66 0 3 C0 2.01 0 1.02 0 0 Z " fill="#110A0A" transform="translate(588,180)"/>
<path d="M0 0 C0.66 0.33 1.32 0.66 2 1 C1.34 2.65 0.68 4.3 0 6 C-1.65 5.67 -3.3 5.34 -5 5 C-3.35 3.35 -1.7 1.7 0 0 Z " fill="#150F04" transform="translate(416,157)"/>
</svg>
